<?xml version="1.0" encoding="utf-8"?>
<!-- Generator: Adobe Illustrator 16.0.0, SVG Export Plug-In . SVG Version: 6.00 Build 0)  -->
<!DOCTYPE svg PUBLIC "-//W3C//DTD SVG 1.1//EN" "http://www.w3.org/Graphics/SVG/1.1/DTD/svg11.dtd">
<svg version="1.1" id="圖層_1" xmlns="http://www.w3.org/2000/svg" xmlns:xlink="http://www.w3.org/1999/xlink" x="0px" y="0px"
	 width="250px" height="72px" viewBox="0 0 250 72" enable-background="new 0 0 250 72" xml:space="preserve">
<path fill="#27C7FF" d="M129.008,15.849h-8.015V55.92h8.015V15.849z"/>
<path fill="#27C7FF" d="M105.341,27.841h-8.014c-2.126,0-4.165,0.844-5.667,2.347s-2.347,3.542-2.347,5.667v12.021
	c0,2.125,0.844,4.164,2.347,5.667s3.542,2.347,5.667,2.347h8.014c2.125,0,4.164-0.844,5.667-2.347s2.347-3.542,2.347-5.667V35.855
	c0-2.125-0.844-4.164-2.347-5.667S107.466,27.841,105.341,27.841z M105.341,47.877c0,1.063-0.422,2.082-1.174,2.834
	c-0.751,0.751-1.771,1.174-2.833,1.174c-1.063,0-2.082-0.423-2.834-1.174c-0.751-0.752-1.173-1.771-1.173-2.834V35.855
	c0-1.063,0.422-2.082,1.173-2.833c0.752-0.751,1.771-1.173,2.834-1.173c1.062,0,2.082,0.422,2.833,1.173
	c0.752,0.751,1.174,1.771,1.174,2.833V47.877z"/>
<path fill="#27C7FF" d="M150.514,27.871H142.5c-1.054,0-2.095,0.207-3.067,0.609c-0.973,0.403-1.857,0.993-2.601,1.737
	c-0.745,0.744-1.335,1.628-1.737,2.601s-0.609,2.015-0.609,3.067v12.021c0,2.125,0.845,4.164,2.348,5.667s3.541,2.347,5.667,2.347
	h8.014c2.126,0,4.164-0.844,5.667-2.347c1.504-1.503,2.348-3.542,2.348-5.667V35.885c0-2.125-0.844-4.164-2.348-5.667
	C154.678,28.715,152.64,27.871,150.514,27.871z M150.514,47.906c0,1.063-0.422,2.082-1.174,2.834
	c-0.751,0.751-1.771,1.174-2.833,1.174s-2.082-0.423-2.834-1.174c-0.751-0.752-1.173-1.771-1.173-2.834V35.885
	c0-1.063,0.422-2.082,1.173-2.833c0.752-0.751,1.771-1.173,2.834-1.173s2.082,0.422,2.833,1.173
	c0.752,0.751,1.174,1.771,1.174,2.833V47.906z"/>
<path fill="#27C7FF" d="M241.986,43.899H250v-8.015c0-1.052-0.207-2.095-0.609-3.067c-0.404-0.972-0.994-1.856-1.738-2.6
	s-1.627-1.334-2.6-1.737c-0.973-0.402-2.015-0.61-3.066-0.61h-8.016c-2.125,0-4.164,0.844-5.666,2.347
	c-1.504,1.503-2.348,3.542-2.348,5.667v12.021c0,1.053,0.207,2.095,0.609,3.066c0.404,0.973,0.994,1.856,1.738,2.601
	s1.627,1.335,2.6,1.737s2.015,0.609,3.066,0.609h8.016c1.052,0,2.094-0.207,3.066-0.609s1.855-0.993,2.6-1.737
	s1.334-1.628,1.738-2.601c0.402-0.972,0.609-2.014,0.609-3.066h-4.007c0,0.526-0.104,1.047-0.306,1.533s-0.496,0.928-0.869,1.301
	c-0.371,0.371-0.813,0.667-1.299,0.868c-0.486,0.201-1.008,0.306-1.533,0.306h-4.008c-1.063,0-2.082-0.423-2.834-1.174
	c-0.752-0.752-1.174-1.771-1.174-2.834v-4.007H241.986z M233.971,35.885c0-1.063,0.422-2.082,1.174-2.833s1.771-1.173,2.834-1.173
	s2.082,0.422,2.834,1.173c0.75,0.751,1.174,1.771,1.174,2.833v4.008h-8.016V35.885z"/>
<path fill="#27C7FF" d="M190.527,28.275V47.69c0,0.51-0.102,1.015-0.303,1.485c-0.199,0.472-0.492,0.899-0.861,1.261
	c-0.372,0.359-0.809,0.646-1.293,0.842c-0.485,0.194-1.003,0.296-1.527,0.296h-3.969V28.275h-7.984v27.181h10.026
	c3.682,0,7.211-1.425,9.816-3.961c2.604-2.538,4.067-5.979,4.067-9.567V28.275H190.527z"/>
<path fill="#27C7FF" d="M77.147,27.986h-4.011c-1.06,0.001-2.076,0.421-2.826,1.17c-0.75,0.748-1.174,1.763-1.178,2.823V15.964
	h-8.014v40.071h8.014V36c0-1.063,0.422-2.082,1.174-2.833s1.771-1.173,2.833-1.173c1.063,0,2.082,0.422,2.833,1.173
	s1.174,1.771,1.174,2.833v20.035h8.014V36c0-2.125-0.844-4.164-2.348-5.667C81.311,28.83,79.272,27.986,77.147,27.986z"/>
<path fill="#27C7FF" d="M73.14,33.066c0,0.067,0,0.135,0,0.203C73.143,33.201,73.14,33.133,73.14,33.066z"/>
<path fill="#4F9FEF" d="M55.221,38.362h-3.503v7.007h3.503V38.362z"/>
<path fill="#4F9FEF" d="M52.143,40.83L7.529,20.387c-0.813-0.36-1.702-0.513-2.588-0.444c-0.886,0.069-1.741,0.357-2.488,0.839
	c-0.747,0.482-1.362,1.142-1.79,1.921S0.007,24.355,0,25.244v40.771c0,3.85,4.411,6.718,7.918,5.117l43.996-21.018
	C56.325,47.901,56.268,42.697,52.143,40.83z"/>
<path fill="#27C7FF" d="M55.221,31.355h-3.503v7.007h3.503V31.355z"/>
<path fill="#27C7FF" d="M52.143,34.069L7.529,13.637c-0.813-0.36-1.703-0.513-2.589-0.444c-0.887,0.069-1.742,0.358-2.489,0.84
	c-0.747,0.482-1.362,1.143-1.79,1.922C0.233,16.735,0.006,17.609,0,18.498v40.768c0,3.854,4.411,6.719,7.918,5.136l43.996-21.024
	C56.325,41.151,56.268,35.952,52.143,34.069z"/>
<path fill="#DFFAFF" d="M55.221,26.226h-3.503v5.193h3.503V26.226z"/>
<path fill="#DFFAFF" d="M51.914,31.03L7.918,52.056C4.411,53.655,0,50.787,0,46.938v5.321c0,3.851,4.411,6.718,7.918,5.118
	l43.996-21.025c3.354-1.679,4.122-5.086,2.482-7.454C53.772,29.816,52.916,30.552,51.914,31.03z"/>
<path fill="#77E7EF" d="M7.529,6.63l44.614,20.429c0.904,0.398,1.685,1.034,2.257,1.839c1.643-2.479,0.832-5.75-2.257-7.161
	L7.529,1.309C6.714,0.948,5.823,0.795,4.936,0.865C4.047,0.936,3.191,1.226,2.444,1.71C1.696,2.194,1.082,2.857,0.655,3.639
	S0.003,5.297,0,6.188v5.3c0.007-0.889,0.234-1.762,0.663-2.541c0.428-0.778,1.043-1.438,1.79-1.92C3.2,6.544,4.055,6.255,4.94,6.187
	C5.827,6.117,6.716,6.27,7.529,6.63z"/>
<path fill="#5FDDEF" d="M7.918,52.055L51.914,31.03c1.003-0.481,1.859-1.221,2.482-2.143c-0.573-0.801-1.352-1.433-2.254-1.829
	L7.529,6.63C6.716,6.27,5.827,6.117,4.94,6.187C4.055,6.255,3.2,6.544,2.453,7.025c-0.747,0.482-1.362,1.142-1.79,1.921
	S0.007,10.598,0,11.487v35.45C0,50.787,4.411,53.654,7.918,52.055z"/>
<text transform="matrix(1 0 0 1 -486.5 -427.5)" stroke="#000000" stroke-width="12" stroke-miterlimit="10" font-family="'HarlowSolid'" font-size="12">t</text>
<linearGradient id="SVGID_1_" gradientUnits="userSpaceOnUse" x1="158.791" y1="101.7002" x2="158.791" y2="-73.9913" gradientTransform="matrix(1 0 0 -1 8.3999 48.04)">
	<stop  offset="0" style="stop-color:#00DCF0"/>
	<stop  offset="0.063" style="stop-color:#00D7F3"/>
	<stop  offset="0.275" style="stop-color:#00CBFC"/>
	<stop  offset="0.5" style="stop-color:#00C8FF"/>
	<stop  offset="1" style="stop-color:#00A0F2"/>
</linearGradient>
<path fill="url(#SVGID_1_)" d="M168.907,55.51c-1.874,0-3.236-0.998-4.084-2.993c-0.848-1.994-1.272-4.696-1.271-8.103V34.001
	h-1.836v-8.665h1.836v-6.045l5.563-2.807v8.852h3.227l-0.208,8.665h-3.019v9.539c0,1.248,0.148,2.13,0.445,2.65
	c0.396,0.584,0.878,0.858,1.36,0.778c0.595-0.008,1.185-0.218,1.747-0.622v7.791C171.468,55.109,170.19,55.577,168.907,55.51z"/>
<linearGradient id="SVGID_2_" gradientUnits="userSpaceOnUse" x1="-429.8828" y1="100.6768" x2="-429.8828" y2="-76.3651" gradientTransform="matrix(-1 0 0 -1 -218.0205 48.04)">
	<stop  offset="0" style="stop-color:#00DCF0"/>
	<stop  offset="0.063" style="stop-color:#00D7F3"/>
	<stop  offset="0.275" style="stop-color:#00CBFC"/>
	<stop  offset="0.5" style="stop-color:#00C8FF"/>
	<stop  offset="1" style="stop-color:#00A0F2"/>
</linearGradient>
<path fill="url(#SVGID_2_)" d="M210.703,56.587c-0.77-0.508-1.49-1.24-2.133-2.169l-0.31,2.325h-5.563V14.388h6.416v13.639
	c0.607-0.585,1.258-1.008,1.928-1.257c0.736-0.292,1.484-0.439,2.235-0.439c1.353-0.018,2.683,0.623,3.856,1.854
	c1.213,1.292,2.196,3.201,2.834,5.498c0.706,2.431,1.058,5.469,1.058,9.113c0,3.562-0.313,6.41-0.938,8.547
	c-0.571,2.038-1.496,3.665-2.629,4.618c-1.255,0.99-2.61,1.473-3.976,1.414C212.538,57.41,211.598,57.143,210.703,56.587z
	 M211.64,48.825c0.979,0,1.696-0.366,2.15-1.1c0.454-0.734,0.683-2.356,0.683-4.87c0-2.555-0.262-4.524-0.785-5.908
	c-0.217-0.638-0.52-1.164-0.876-1.527c-0.359-0.363-0.764-0.551-1.172-0.545c-0.919-0.08-1.821,0.481-2.525,1.57v10.56
	c0.679,1.197,1.586,1.853,2.525,1.822V48.825z"/>
</svg>
