<svg width="680" height="262" viewBox="0 0 680 262" fill="none" xmlns="http://www.w3.org/2000/svg">
<mask id="mask0_803_2764" style="mask-type:luminance" maskUnits="userSpaceOnUse" x="475" y="0" width="206" height="262">
<path d="M680.001 0H475.671V261.671H680.001V0Z" fill="white"/>
</mask>
<g mask="url(#mask0_803_2764)">
<path d="M669.217 123.148L505.063 46.0962C501.919 44.6205 498.454 43.9625 494.988 44.183C491.522 44.4035 488.168 45.4955 485.237 47.3577C482.306 49.2199 479.892 51.792 478.22 54.8356C476.548 57.8792 475.671 61.2958 475.671 64.7685V241.018C475.671 244.491 476.548 247.908 478.22 250.951C479.892 253.995 482.306 256.567 485.237 258.429C488.168 260.291 491.522 261.383 494.988 261.604C498.454 261.824 501.919 261.166 505.063 259.691L669.217 182.641C672.459 181.151 675.202 178.756 677.115 175.744C679.028 172.732 680.03 169.232 680.001 165.664V140.123C680.029 136.555 679.027 133.055 677.114 130.044C675.201 127.033 672.459 124.638 669.217 123.148Z" fill="#50A0F0"/>
<path d="M669.217 97.6068L505.063 20.5549C501.919 19.0793 498.454 18.4212 494.988 18.6417C491.522 18.8623 488.168 19.9542 485.237 21.8164C482.306 23.6786 479.892 26.2507 478.22 29.2943C476.548 32.3379 475.671 35.7545 475.671 39.2273V215.477C475.671 218.95 476.548 222.366 478.22 225.41C479.892 228.454 482.306 231.026 485.237 232.888C488.168 234.75 491.522 235.842 494.988 236.063C498.454 236.283 501.919 235.625 505.063 234.149L669.217 157.1C672.459 155.61 675.202 153.215 677.115 150.203C679.028 147.191 680.03 143.691 680.001 140.123V114.582C680.029 111.014 679.027 107.514 677.114 104.503C675.201 101.491 672.459 99.0967 669.217 97.6068Z" fill="#28C8FF"/>
<path d="M669.217 79.0314L505.063 1.97949C501.919 0.503837 498.454 -0.154231 494.988 0.0662924C491.522 0.286815 488.168 1.37879 485.237 3.24098C482.306 5.10317 479.892 7.6753 478.22 10.7189C476.548 13.7625 475.671 17.1791 475.671 20.6518V189.936C475.671 193.409 476.548 196.826 478.22 199.869C479.892 202.913 482.306 205.485 485.237 207.347C488.168 209.209 491.522 210.301 494.988 210.522C498.454 210.743 501.919 210.084 505.063 208.609L669.217 131.559C672.459 130.069 675.202 127.674 677.115 124.662C679.028 121.65 680.03 118.149 680.001 114.581V96.0061C680.029 92.4386 679.027 88.9387 677.114 85.9273C675.201 82.9159 672.459 80.5213 669.217 79.0314Z" fill="#E1FAFF"/>
<path d="M475.671 20.6518C475.671 17.1791 476.548 13.7625 478.22 10.7189C479.892 7.6753 482.306 5.10317 485.237 3.24098C488.168 1.37879 491.522 0.286815 494.988 0.0662924C498.454 -0.154231 501.919 0.503837 505.063 1.97949L669.217 79.0288C683.596 85.7777 683.596 106.229 669.217 112.978L505.063 190.028C501.92 191.503 498.455 192.161 494.989 191.941C491.524 191.721 488.17 190.629 485.239 188.767C482.308 186.906 479.894 184.334 478.222 181.291C476.549 178.249 475.672 174.833 475.671 171.36V20.6518Z" fill="#5FDCF0"/>
<path d="M505.063 20.5548L669.217 97.6041C672.734 99.2281 675.65 101.917 677.553 105.291C678.834 103.042 679.635 100.552 679.906 97.9787C680.178 95.405 679.914 92.8029 679.131 90.3361C678.348 87.8694 677.063 85.5914 675.357 83.6454C673.651 81.6994 671.56 80.1276 669.217 79.0288L505.063 1.97949C501.919 0.503837 498.454 -0.154231 494.988 0.0662924C491.522 0.286815 488.168 1.37879 485.237 3.24098C482.306 5.10317 479.892 7.6753 478.22 10.7189C476.548 13.7625 475.671 17.1791 475.671 20.6518V39.2271C475.671 35.7543 476.548 32.3378 478.22 29.2942C479.892 26.2506 482.306 23.6785 485.237 21.8163C488.168 19.9541 491.522 18.8621 494.988 18.6416C498.454 18.421 501.919 19.0791 505.063 20.5548Z" fill="#78E6F0"/>
</g>
<path d="M0 73.8302V20.4329H14.8905V38.5739C16.4166 37.5834 18.087 36.8352 19.8421 36.3561C21.9154 35.7624 24.0632 35.4691 26.2198 35.4852C31.395 35.4852 35.1694 36.6864 37.543 39.089C39.9167 41.4916 41.1052 45.2016 41.1086 50.219V73.8302H26.1406V51.3284C26.1406 49.5853 25.7841 48.344 25.0713 47.6045C24.3584 46.8649 23.0779 46.496 21.2299 46.4977C20.0385 46.5164 18.8644 46.7862 17.7844 47.2895C16.7111 47.7405 15.7299 48.3849 14.8897 49.1906V73.8302H0Z" fill="url(#paint0_linear_803_2764)"/>
<path d="M67.7287 74.6178C60.2293 74.6178 54.6976 72.9545 51.1337 69.6279C47.5699 66.3013 45.7877 61.4425 45.7871 55.0515C45.7871 48.7145 47.5824 43.8687 51.1729 40.5143C54.7634 37.1599 60.2823 35.4838 67.7296 35.4861C75.229 35.4861 80.7879 37.1622 84.4063 40.5143C88.0246 43.8664 89.8332 48.7122 89.8321 55.0515C89.8321 61.4408 88.0363 66.2996 84.4446 69.6279C80.8529 72.9562 75.281 74.6195 67.7287 74.6178ZM67.7287 63.7653C70.1568 63.7653 71.9129 63.0788 72.997 61.7058C74.0811 60.3329 74.6223 58.1148 74.6206 55.0515C74.6206 52.0399 74.0794 49.8349 72.997 48.4363C71.9146 47.0378 70.1585 46.3383 67.7287 46.3377C65.3523 46.3377 63.6362 47.0372 62.5805 48.4363C61.5248 49.8354 60.9963 52.0405 60.9952 55.0515C60.9952 58.1165 61.5236 60.3346 62.5805 61.7058C63.6373 63.0771 65.3534 63.765 67.7287 63.7696V63.7653Z" fill="url(#paint1_linear_803_2764)"/>
<path d="M108.129 74.6177C103.535 74.6177 100.26 73.6409 98.3054 71.6873C96.3507 69.7337 95.3739 66.6701 95.375 62.4967V20.4329H110.267V60.8348C110.214 61.2523 110.25 61.6765 110.373 62.0791C110.495 62.4817 110.702 62.8536 110.98 63.1701C111.629 63.618 112.412 63.8285 113.198 63.7661C113.875 63.7671 114.55 63.7141 115.219 63.6077C115.853 63.5083 116.476 63.3486 117.08 63.131V73.0333C114.24 74.1823 111.19 74.7221 108.129 74.6177Z" fill="url(#paint2_linear_803_2764)"/>
<path d="M141 74.6178C133.501 74.6178 127.969 72.9545 124.405 69.6279C120.841 66.3013 119.059 61.4425 119.059 55.0515C119.059 48.7145 120.854 43.8687 124.444 40.5143C128.035 37.1599 133.554 35.4838 141.001 35.4861C148.501 35.4861 154.059 37.1622 157.677 40.5143C161.295 43.8664 163.103 48.7122 163.101 55.0515C163.101 61.4408 161.306 66.2996 157.715 69.6279C154.125 72.9562 148.553 74.6195 141 74.6178ZM141 63.7653C143.428 63.7653 145.184 63.0788 146.268 61.7058C147.353 60.3329 147.894 58.1148 147.892 55.0515C147.892 52.0399 147.351 49.8349 146.268 48.4363C145.186 47.0378 143.43 46.3383 141 46.3377C138.624 46.3377 136.908 47.0372 135.852 48.4363C134.796 49.8354 134.268 52.0405 134.268 55.0515C134.268 58.1165 134.796 60.3346 135.852 61.7058C136.908 63.0771 138.624 63.765 141 63.7696V63.7653Z" fill="url(#paint3_linear_803_2764)"/>
<path d="M181.401 74.6177C176.807 74.6177 173.532 73.6409 171.578 71.6873C169.623 69.7337 168.646 66.6701 168.646 62.4967V20.4329H183.538V60.8348C183.484 61.2525 183.52 61.6768 183.643 62.0795C183.766 62.4822 183.974 62.854 184.252 63.1701C184.901 63.618 185.684 63.8285 186.47 63.7661C187.147 63.7671 187.823 63.7141 188.491 63.6077C189.124 63.5085 189.747 63.3489 190.35 63.131V73.0333C187.51 74.1819 184.462 74.7217 181.401 74.6177Z" fill="url(#paint4_linear_803_2764)"/>
<path d="M194.94 73.8261V47.1296H189.475L190.743 36.2771H209.839V73.8227L194.94 73.8261ZM193.756 31.2855V20.5122H209.839V31.2855H193.756Z" fill="url(#paint5_linear_803_2764)"/>
<path d="M228.613 73.8261L213.799 36.2805H229.324L236.453 58.3022L243.584 36.2805H259.11L244.296 73.8261H228.613Z" fill="url(#paint6_linear_803_2764)"/>
<path d="M280.975 74.6177C276.998 74.6964 273.046 73.9545 269.368 72.4381C266.153 71.1034 263.419 68.825 261.527 65.9038C259.561 62.6631 258.584 58.9187 258.717 55.1306C258.717 49.1641 260.407 44.3981 263.786 40.8326C267.166 37.267 272.209 35.4845 278.916 35.4851C285.041 35.4851 289.834 37.0428 293.295 40.1583C296.756 43.2738 298.485 47.525 298.481 52.9119V59.487H272.418C272.734 60.454 273.26 61.3391 273.959 62.0786C274.657 62.8182 275.511 63.3939 276.458 63.7643C279.07 64.7103 281.841 65.1403 284.618 65.0303C286.809 65.0272 288.996 64.8278 291.152 64.4344C292.95 64.1445 294.715 63.6797 296.422 63.0466V71.9997C292.725 73.7461 287.576 74.6188 280.975 74.6177ZM272.418 51.4075H285.649V50.0623C285.672 49.3934 285.561 48.7265 285.323 48.1009C285.085 47.4754 284.723 46.9039 284.261 46.4202C283.336 45.4683 281.712 44.9927 279.388 44.9933C276.802 44.9933 274.994 45.5344 273.964 46.6168C272.846 47.9522 272.292 49.6704 272.418 51.4075Z" fill="url(#paint7_linear_803_2764)"/>
<path d="M0 73.8302V20.4329H14.8905V38.5739C16.4166 37.5834 18.087 36.8352 19.8421 36.3561C21.9154 35.7624 24.0632 35.4691 26.2198 35.4852C31.395 35.4852 35.1694 36.6864 37.543 39.089C39.9167 41.4916 41.1052 45.2016 41.1086 50.219V73.8302H26.1406V51.3284C26.1406 49.5853 25.7841 48.344 25.0713 47.6045C24.3584 46.8649 23.0779 46.496 21.2299 46.4977C20.0385 46.5164 18.8644 46.7862 17.7844 47.2895C16.7111 47.7405 15.7299 48.3849 14.8897 49.1906V73.8302H0Z" fill="url(#paint8_linear_803_2764)"/>
<path d="M67.7287 74.6178C60.2293 74.6178 54.6976 72.9545 51.1337 69.6279C47.5699 66.3013 45.7877 61.4425 45.7871 55.0515C45.7871 48.7145 47.5824 43.8687 51.1729 40.5143C54.7634 37.1599 60.2823 35.4838 67.7296 35.4861C75.229 35.4861 80.7879 37.1622 84.4063 40.5143C88.0246 43.8664 89.8332 48.7122 89.8321 55.0515C89.8321 61.4408 88.0363 66.2996 84.4446 69.6279C80.8529 72.9562 75.281 74.6195 67.7287 74.6178ZM67.7287 63.7653C70.1568 63.7653 71.9129 63.0788 72.997 61.7058C74.0811 60.3329 74.6223 58.1148 74.6206 55.0515C74.6206 52.0399 74.0794 49.8349 72.997 48.4363C71.9146 47.0378 70.1585 46.3383 67.7287 46.3377C65.3523 46.3377 63.6362 47.0372 62.5805 48.4363C61.5248 49.8354 60.9963 52.0405 60.9952 55.0515C60.9952 58.1165 61.5236 60.3346 62.5805 61.7058C63.6373 63.0771 65.3534 63.765 67.7287 63.7696V63.7653Z" fill="url(#paint9_linear_803_2764)"/>
<path d="M108.129 74.6177C103.535 74.6177 100.26 73.6409 98.3054 71.6873C96.3507 69.7337 95.3739 66.6701 95.375 62.4967V20.4329H110.267V60.8348C110.214 61.2523 110.25 61.6765 110.373 62.0791C110.495 62.4817 110.702 62.8536 110.98 63.1701C111.629 63.618 112.412 63.8285 113.198 63.7661C113.875 63.7671 114.55 63.7141 115.219 63.6077C115.853 63.5083 116.476 63.3486 117.08 63.131V73.0333C114.24 74.1823 111.19 74.7221 108.129 74.6177Z" fill="url(#paint10_linear_803_2764)"/>
<path d="M141 74.6178C133.501 74.6178 127.969 72.9545 124.405 69.6279C120.841 66.3013 119.059 61.4425 119.059 55.0515C119.059 48.7145 120.854 43.8687 124.444 40.5143C128.035 37.1599 133.554 35.4838 141.001 35.4861C148.501 35.4861 154.059 37.1622 157.677 40.5143C161.295 43.8664 163.103 48.7122 163.101 55.0515C163.101 61.4408 161.306 66.2996 157.715 69.6279C154.125 72.9562 148.553 74.6195 141 74.6178ZM141 63.7653C143.428 63.7653 145.184 63.0788 146.268 61.7058C147.353 60.3329 147.894 58.1148 147.892 55.0515C147.892 52.0399 147.351 49.8349 146.268 48.4363C145.186 47.0378 143.43 46.3383 141 46.3377C138.624 46.3377 136.908 47.0372 135.852 48.4363C134.796 49.8354 134.268 52.0405 134.268 55.0515C134.268 58.1165 134.796 60.3346 135.852 61.7058C136.908 63.0771 138.624 63.765 141 63.7696V63.7653Z" fill="url(#paint11_linear_803_2764)"/>
<path d="M181.401 74.6177C176.807 74.6177 173.532 73.6409 171.578 71.6873C169.623 69.7337 168.646 66.6701 168.646 62.4967V20.4329H183.538V60.8348C183.484 61.2525 183.52 61.6768 183.643 62.0795C183.766 62.4822 183.974 62.854 184.252 63.1701C184.901 63.618 185.684 63.8285 186.47 63.7661C187.147 63.7671 187.823 63.7141 188.491 63.6077C189.124 63.5085 189.747 63.3489 190.35 63.131V73.0333C187.51 74.1819 184.462 74.7217 181.401 74.6177Z" fill="url(#paint12_linear_803_2764)"/>
<path d="M194.94 73.8261V47.1296H189.475L190.743 36.2771H209.839V73.8227L194.94 73.8261ZM193.756 31.2855V20.5122H209.839V31.2855H193.756Z" fill="url(#paint13_linear_803_2764)"/>
<path d="M228.613 73.8261L213.799 36.2805H229.324L236.453 58.3022L243.584 36.2805H259.11L244.296 73.8261H228.613Z" fill="url(#paint14_linear_803_2764)"/>
<path d="M280.975 74.6177C276.998 74.6964 273.046 73.9545 269.368 72.4381C266.153 71.1034 263.419 68.825 261.527 65.9038C259.561 62.6631 258.584 58.9187 258.717 55.1306C258.717 49.1641 260.407 44.3981 263.786 40.8326C267.166 37.267 272.209 35.4845 278.916 35.4851C285.041 35.4851 289.834 37.0428 293.295 40.1583C296.756 43.2738 298.485 47.525 298.481 52.9119V59.487H272.418C272.734 60.454 273.26 61.3391 273.959 62.0786C274.657 62.8182 275.511 63.3939 276.458 63.7643C279.07 64.7103 281.841 65.1403 284.618 65.0303C286.809 65.0272 288.996 64.8278 291.152 64.4344C292.95 64.1445 294.715 63.6797 296.422 63.0466V71.9997C292.725 73.7461 287.576 74.6188 280.975 74.6177ZM272.418 51.4075H285.649V50.0623C285.672 49.3934 285.561 48.7265 285.323 48.1009C285.085 47.4754 284.723 46.9039 284.261 46.4202C283.336 45.4683 281.712 44.9927 279.388 44.9933C276.802 44.9933 274.994 45.5344 273.964 46.6168C272.846 47.9522 272.292 49.6704 272.418 51.4075Z" fill="url(#paint15_linear_803_2764)"/>
<path d="M0 73.8302V20.4329H14.8905V38.5739C16.4166 37.5834 18.087 36.8352 19.8421 36.3561C21.9154 35.7624 24.0632 35.4691 26.2198 35.4852C31.395 35.4852 35.1694 36.6864 37.543 39.089C39.9167 41.4916 41.1052 45.2016 41.1086 50.219V73.8302H26.1406V51.3284C26.1406 49.5853 25.7841 48.344 25.0713 47.6045C24.3584 46.8649 23.0779 46.496 21.2299 46.4977C20.0385 46.5164 18.8644 46.7862 17.7844 47.2895C16.7111 47.7405 15.7299 48.3849 14.8897 49.1906V73.8302H0Z" fill="url(#paint16_linear_803_2764)"/>
<path d="M67.7287 74.6178C60.2293 74.6178 54.6976 72.9545 51.1337 69.6279C47.5699 66.3013 45.7877 61.4425 45.7871 55.0515C45.7871 48.7145 47.5824 43.8687 51.1729 40.5143C54.7634 37.1599 60.2823 35.4838 67.7296 35.4861C75.229 35.4861 80.7879 37.1622 84.4063 40.5143C88.0246 43.8664 89.8332 48.7122 89.8321 55.0515C89.8321 61.4408 88.0363 66.2996 84.4446 69.6279C80.8529 72.9562 75.281 74.6195 67.7287 74.6178ZM67.7287 63.7653C70.1568 63.7653 71.9129 63.0788 72.997 61.7058C74.0811 60.3329 74.6223 58.1148 74.6206 55.0515C74.6206 52.0399 74.0794 49.8349 72.997 48.4363C71.9146 47.0378 70.1585 46.3383 67.7287 46.3377C65.3523 46.3377 63.6362 47.0372 62.5805 48.4363C61.5248 49.8354 60.9963 52.0405 60.9952 55.0515C60.9952 58.1165 61.5236 60.3346 62.5805 61.7058C63.6373 63.0771 65.3534 63.765 67.7287 63.7696V63.7653Z" fill="url(#paint17_linear_803_2764)"/>
<path d="M108.129 74.6177C103.535 74.6177 100.26 73.6409 98.3054 71.6873C96.3507 69.7337 95.3739 66.6701 95.375 62.4967V20.4329H110.267V60.8348C110.214 61.2523 110.25 61.6765 110.373 62.0791C110.495 62.4817 110.702 62.8536 110.98 63.1701C111.629 63.618 112.412 63.8285 113.198 63.7661C113.875 63.7671 114.55 63.7141 115.219 63.6077C115.853 63.5083 116.476 63.3486 117.08 63.131V73.0333C114.24 74.1823 111.19 74.7221 108.129 74.6177Z" fill="url(#paint18_linear_803_2764)"/>
<path d="M141 74.6178C133.501 74.6178 127.969 72.9545 124.405 69.6279C120.841 66.3013 119.059 61.4425 119.059 55.0515C119.059 48.7145 120.854 43.8687 124.444 40.5143C128.035 37.1599 133.554 35.4838 141.001 35.4861C148.501 35.4861 154.059 37.1622 157.677 40.5143C161.295 43.8664 163.103 48.7122 163.101 55.0515C163.101 61.4408 161.306 66.2996 157.715 69.6279C154.125 72.9562 148.553 74.6195 141 74.6178ZM141 63.7653C143.428 63.7653 145.184 63.0788 146.268 61.7058C147.353 60.3329 147.894 58.1148 147.892 55.0515C147.892 52.0399 147.351 49.8349 146.268 48.4363C145.186 47.0378 143.43 46.3383 141 46.3377C138.624 46.3377 136.908 47.0372 135.852 48.4363C134.796 49.8354 134.268 52.0405 134.268 55.0515C134.268 58.1165 134.796 60.3346 135.852 61.7058C136.908 63.0771 138.624 63.765 141 63.7696V63.7653Z" fill="url(#paint19_linear_803_2764)"/>
<path d="M181.401 74.6177C176.807 74.6177 173.532 73.6409 171.578 71.6873C169.623 69.7337 168.646 66.6701 168.646 62.4967V20.4329H183.538V60.8348C183.484 61.2525 183.52 61.6768 183.643 62.0795C183.766 62.4822 183.974 62.854 184.252 63.1701C184.901 63.618 185.684 63.8285 186.47 63.7661C187.147 63.7671 187.823 63.7141 188.491 63.6077C189.124 63.5085 189.747 63.3489 190.35 63.131V73.0333C187.51 74.1819 184.462 74.7217 181.401 74.6177Z" fill="url(#paint20_linear_803_2764)"/>
<path d="M194.94 73.8261V47.1296H189.475L190.743 36.2771H209.839V73.8227L194.94 73.8261ZM193.756 31.2855V20.5122H209.839V31.2855H193.756Z" fill="url(#paint21_linear_803_2764)"/>
<path d="M228.613 73.8261L213.799 36.2805H229.324L236.453 58.3022L243.584 36.2805H259.11L244.296 73.8261H228.613Z" fill="url(#paint22_linear_803_2764)"/>
<path d="M280.975 74.6177C276.998 74.6964 273.046 73.9545 269.368 72.4381C266.153 71.1034 263.419 68.825 261.527 65.9038C259.561 62.6631 258.584 58.9187 258.717 55.1306C258.717 49.1641 260.407 44.3981 263.786 40.8326C267.166 37.267 272.209 35.4845 278.916 35.4851C285.041 35.4851 289.834 37.0428 293.295 40.1583C296.756 43.2738 298.485 47.525 298.481 52.9119V59.487H272.418C272.734 60.454 273.26 61.3391 273.959 62.0786C274.657 62.8182 275.511 63.3939 276.458 63.7643C279.07 64.7103 281.841 65.1403 284.618 65.0303C286.809 65.0272 288.996 64.8278 291.152 64.4344C292.95 64.1445 294.715 63.6797 296.422 63.0466V71.9997C292.725 73.7461 287.576 74.6188 280.975 74.6177ZM272.418 51.4075H285.649V50.0623C285.672 49.3934 285.561 48.7265 285.323 48.1009C285.085 47.4754 284.723 46.9039 284.261 46.4202C283.336 45.4683 281.712 44.9927 279.388 44.9933C276.802 44.9933 274.994 45.5344 273.964 46.6168C272.846 47.9522 272.292 49.6704 272.418 51.4075Z" fill="url(#paint23_linear_803_2764)"/>
<path d="M0 170.323V115.665H12.9119L13.6245 118.676C15.1378 117.473 16.837 116.524 18.6553 115.867C20.7072 115.17 22.8646 114.835 25.0312 114.877C30.6293 114.877 34.9469 116.289 37.984 119.114C41.0212 121.939 42.5398 126.732 42.5398 133.493C42.5398 140.199 40.9287 145.295 37.7065 148.781C34.4843 152.267 30.0484 154.01 24.3987 154.009C21.0995 154.114 17.8277 153.378 14.8914 151.87V170.328L0 170.323ZM20.5964 143.152C21.5524 143.203 22.5064 143.021 23.3759 142.62C24.2453 142.219 25.0041 141.613 25.5863 140.853C26.7465 139.321 27.3268 136.944 27.3274 133.725C27.3274 130.609 26.7862 128.497 25.7038 127.387C24.6215 126.277 22.9718 125.723 20.7548 125.723C18.5914 125.703 16.4991 126.494 14.8905 127.941V141.249C15.6634 141.843 16.5175 142.324 17.4268 142.676C18.4469 143.021 19.52 143.182 20.5964 143.152Z" fill="url(#paint24_linear_803_2764)"/>
<path d="M48.083 153.213V115.668H62.4219L62.8177 118.679C64.6739 117.644 66.6404 116.819 68.6803 116.222C71.0213 115.491 73.4408 115.039 75.888 114.877V125.967C74.5139 126.073 73.0217 126.258 71.4115 126.521C69.8013 126.785 68.2435 127.115 66.7383 127.513C65.4473 127.833 64.1881 128.27 62.9761 128.818V153.218L48.083 153.213Z" fill="url(#paint25_linear_803_2764)"/>
<path d="M98.8604 154.004C91.361 154.004 85.8293 152.341 82.2655 149.014C78.7016 145.688 76.9191 140.829 76.918 134.438C76.918 128.101 78.7132 123.256 82.3038 119.902C85.8943 116.549 91.4132 114.872 98.8604 114.872C106.36 114.872 111.919 116.549 115.537 119.902C119.155 123.256 120.964 128.101 120.963 134.438C120.963 140.829 119.167 145.688 115.575 149.014C111.984 152.34 106.412 154.004 98.8604 154.004ZM98.8604 143.152C101.289 143.152 103.045 142.465 104.129 141.092C105.213 139.719 105.754 137.501 105.752 134.439C105.752 131.431 105.211 129.226 104.129 127.825C103.046 126.424 101.29 125.724 98.8604 125.725C96.484 125.725 94.7679 126.425 93.7122 127.825C92.6565 129.225 92.1281 131.43 92.1269 134.439C92.1269 137.504 92.6553 139.721 93.7122 141.092C94.769 142.463 96.4851 143.149 98.8604 143.152Z" fill="url(#paint26_linear_803_2764)"/>
<path d="M142.428 154.009C139.26 154.083 136.113 153.475 133.2 152.227C130.571 151.025 128.422 148.975 127.099 146.405C125.646 143.712 124.919 140.121 124.92 135.632C124.92 131.038 125.738 127.208 127.375 124.144C128.854 121.249 131.138 118.842 133.952 117.214C136.678 115.661 139.766 114.854 142.904 114.876C144.648 114.877 146.387 115.062 148.093 115.43C149.652 115.745 151.159 116.278 152.569 117.015V99.822H167.46V153.213H154.549L153.831 150.281C152.338 151.452 150.667 152.375 148.882 153.015C146.804 153.716 144.621 154.053 142.428 154.009ZM146.706 143.235C148.886 143.271 150.993 142.445 152.568 140.937V127.627C150.933 126.253 148.84 125.546 146.706 125.647C145.756 125.64 144.821 125.876 143.989 126.334C143.157 126.792 142.456 127.455 141.953 128.26C140.737 130.004 140.13 132.486 140.131 135.707C140.131 138.875 140.659 140.921 141.714 141.846C142.769 142.77 144.433 143.232 146.706 143.232V143.235Z" fill="url(#paint27_linear_803_2764)"/>
<path d="M188.215 154.005C183.831 154.005 180.397 152.764 177.913 150.281C175.43 147.799 174.188 144.155 174.189 139.35V115.664H189.086V138.163C189.086 141.437 190.75 143.073 194.078 143.073C195.309 143.07 196.526 142.8 197.643 142.282C198.699 141.829 199.644 141.154 200.413 140.301V115.664H215.308V153.21H201.366L200.969 150.357C199.306 151.504 197.476 152.386 195.543 152.972C193.168 153.693 190.696 154.042 188.215 154.005Z" fill="url(#paint28_linear_803_2764)"/>
<path d="M242.954 154.004C236.143 154.004 230.756 152.381 226.794 149.134C222.831 145.888 220.851 140.989 220.854 134.439C220.854 130.003 221.778 126.332 223.627 123.428C225.479 120.521 228.193 118.264 231.389 116.973C235.092 115.503 239.052 114.789 243.035 114.873C245.556 114.851 248.074 115.05 250.56 115.469C252.753 115.857 254.884 116.536 256.897 117.488V127.94C253.569 126.417 249.942 125.659 246.282 125.722C242.902 125.722 240.354 126.356 238.638 127.624C236.922 128.891 236.063 131.161 236.062 134.435C236.062 137.5 236.881 139.717 238.52 141.088C240.158 142.459 242.745 143.145 246.282 143.148C248.15 143.152 250.012 142.926 251.826 142.474C253.612 142.031 255.341 141.38 256.976 140.534V151.465C254.913 152.38 252.744 153.032 250.519 153.407C248.019 153.82 245.488 154.02 242.954 154.004Z" fill="url(#paint29_linear_803_2764)"/>
<path d="M278.599 154.005C273.582 154.005 269.938 152.737 267.668 150.202C265.397 147.667 264.261 144.234 264.262 139.906V126.675H259.35V115.664H264.262V107.982L279.153 104.416V115.664H287.787L287.233 126.675H279.153V138.796C279.153 140.381 279.55 141.503 280.344 142.163C281.407 142.904 282.695 143.254 283.987 143.153C285.578 143.143 287.156 142.876 288.662 142.361V152.262C285.454 153.497 282.035 154.09 278.599 154.005Z" fill="url(#paint30_linear_803_2764)"/>
<path d="M296.422 153.213V126.517H290.957L292.223 115.664H311.314V153.21L296.422 153.213ZM295.23 110.674V99.9053H311.312V110.679L295.23 110.674Z" fill="url(#paint31_linear_803_2764)"/>
<path d="M338.802 154.004C331.302 154.004 325.771 152.341 322.207 149.014C318.643 145.688 316.861 140.829 316.859 134.438C316.859 128.101 318.655 123.256 322.247 119.902C325.839 116.549 331.357 114.872 338.802 114.872C346.301 114.872 351.859 116.549 355.476 119.902C359.093 123.256 360.902 128.101 360.904 134.438C360.904 140.829 359.109 145.688 355.517 149.014C351.925 152.34 346.354 154.004 338.802 154.004ZM338.802 143.152C341.232 143.152 342.988 142.465 344.07 141.092C345.152 139.719 345.693 137.501 345.694 134.439C345.694 131.431 345.153 129.226 344.07 127.825C342.988 126.424 341.232 125.724 338.803 125.725C336.426 125.725 334.71 126.425 333.654 127.825C332.599 129.225 332.071 131.43 332.072 134.439C332.072 137.504 332.599 139.721 333.654 141.092C334.71 142.463 336.425 143.149 338.802 143.152Z" fill="url(#paint32_linear_803_2764)"/>
<path d="M366.447 153.213V115.668H380.39L380.786 118.521C382.547 117.417 384.452 116.563 386.448 115.984C388.898 115.232 391.45 114.859 394.013 114.878C398.715 114.878 402.149 116.04 404.315 118.364C406.48 120.688 407.563 124.279 407.563 129.137V153.218H392.667V130.636C392.667 128.947 392.298 127.732 391.56 126.991C390.822 126.25 389.528 125.881 387.678 125.884C386.487 125.903 385.312 126.173 384.232 126.676C383.159 127.127 382.178 127.771 381.338 128.577V153.214L366.447 153.213Z" fill="url(#paint33_linear_803_2764)"/>
<path d="M0 170.323V115.665H12.9119L13.6245 118.676C15.1378 117.473 16.837 116.524 18.6553 115.867C20.7072 115.17 22.8646 114.835 25.0312 114.877C30.6293 114.877 34.9469 116.289 37.984 119.114C41.0212 121.939 42.5398 126.732 42.5398 133.493C42.5398 140.199 40.9287 145.295 37.7065 148.781C34.4843 152.267 30.0484 154.01 24.3987 154.009C21.0995 154.114 17.8277 153.378 14.8914 151.87V170.328L0 170.323ZM20.5964 143.152C21.5524 143.203 22.5064 143.021 23.3759 142.62C24.2453 142.219 25.0041 141.613 25.5863 140.853C26.7465 139.321 27.3268 136.944 27.3274 133.725C27.3274 130.609 26.7862 128.497 25.7038 127.387C24.6215 126.277 22.9718 125.723 20.7548 125.723C18.5914 125.703 16.4991 126.494 14.8905 127.941V141.249C15.6634 141.843 16.5175 142.324 17.4268 142.676C18.4469 143.021 19.52 143.182 20.5964 143.152Z" fill="url(#paint34_linear_803_2764)"/>
<path d="M48.083 153.213V115.668H62.4219L62.8177 118.679C64.6739 117.644 66.6404 116.819 68.6803 116.222C71.0213 115.491 73.4408 115.039 75.888 114.877V125.967C74.5139 126.073 73.0217 126.258 71.4115 126.521C69.8013 126.785 68.2435 127.115 66.7383 127.513C65.4473 127.833 64.1881 128.27 62.9761 128.818V153.218L48.083 153.213Z" fill="url(#paint35_linear_803_2764)"/>
<path d="M98.8604 154.004C91.361 154.004 85.8293 152.341 82.2655 149.014C78.7016 145.688 76.9191 140.829 76.918 134.438C76.918 128.101 78.7132 123.256 82.3038 119.902C85.8943 116.549 91.4132 114.872 98.8604 114.872C106.36 114.872 111.919 116.549 115.537 119.902C119.155 123.256 120.964 128.101 120.963 134.438C120.963 140.829 119.167 145.688 115.575 149.014C111.984 152.34 106.412 154.004 98.8604 154.004ZM98.8604 143.152C101.289 143.152 103.045 142.465 104.129 141.092C105.213 139.719 105.754 137.501 105.752 134.439C105.752 131.431 105.211 129.226 104.129 127.825C103.046 126.424 101.29 125.724 98.8604 125.725C96.484 125.725 94.7679 126.425 93.7122 127.825C92.6565 129.225 92.1281 131.43 92.1269 134.439C92.1269 137.504 92.6553 139.721 93.7122 141.092C94.769 142.463 96.4851 143.149 98.8604 143.152Z" fill="url(#paint36_linear_803_2764)"/>
<path d="M142.428 154.009C139.26 154.083 136.113 153.475 133.2 152.227C130.571 151.025 128.422 148.975 127.099 146.405C125.646 143.712 124.919 140.121 124.92 135.632C124.92 131.038 125.738 127.208 127.375 124.144C128.854 121.249 131.138 118.842 133.952 117.214C136.678 115.661 139.766 114.854 142.904 114.876C144.648 114.877 146.387 115.062 148.093 115.43C149.652 115.745 151.159 116.278 152.569 117.015V99.822H167.46V153.213H154.549L153.831 150.281C152.338 151.452 150.667 152.375 148.882 153.015C146.804 153.716 144.621 154.053 142.428 154.009ZM146.706 143.235C148.886 143.271 150.993 142.445 152.568 140.937V127.627C150.933 126.253 148.84 125.546 146.706 125.647C145.756 125.64 144.821 125.876 143.989 126.334C143.157 126.792 142.456 127.455 141.953 128.26C140.737 130.004 140.13 132.486 140.131 135.707C140.131 138.875 140.659 140.921 141.714 141.846C142.769 142.77 144.433 143.232 146.706 143.232V143.235Z" fill="url(#paint37_linear_803_2764)"/>
<path d="M188.215 154.005C183.831 154.005 180.397 152.764 177.913 150.281C175.43 147.799 174.188 144.155 174.189 139.35V115.664H189.086V138.163C189.086 141.437 190.75 143.073 194.078 143.073C195.309 143.07 196.526 142.8 197.643 142.282C198.699 141.829 199.644 141.154 200.413 140.301V115.664H215.308V153.21H201.366L200.969 150.357C199.306 151.504 197.476 152.386 195.543 152.972C193.168 153.693 190.696 154.042 188.215 154.005Z" fill="url(#paint38_linear_803_2764)"/>
<path d="M242.954 154.004C236.143 154.004 230.756 152.381 226.794 149.134C222.831 145.888 220.851 140.989 220.854 134.439C220.854 130.003 221.778 126.332 223.627 123.428C225.479 120.521 228.193 118.264 231.389 116.973C235.092 115.503 239.052 114.789 243.035 114.873C245.556 114.851 248.074 115.05 250.56 115.469C252.753 115.857 254.884 116.536 256.897 117.488V127.94C253.569 126.417 249.942 125.659 246.282 125.722C242.902 125.722 240.354 126.356 238.638 127.624C236.922 128.891 236.063 131.161 236.062 134.435C236.062 137.5 236.881 139.717 238.52 141.088C240.158 142.459 242.745 143.145 246.282 143.148C248.15 143.152 250.012 142.926 251.826 142.474C253.612 142.031 255.341 141.38 256.976 140.534V151.465C254.913 152.38 252.744 153.032 250.519 153.407C248.019 153.82 245.488 154.02 242.954 154.004Z" fill="url(#paint39_linear_803_2764)"/>
<path d="M278.599 154.005C273.582 154.005 269.938 152.737 267.668 150.202C265.397 147.667 264.261 144.234 264.262 139.906V126.675H259.35V115.664H264.262V107.982L279.153 104.416V115.664H287.787L287.233 126.675H279.153V138.796C279.153 140.381 279.55 141.503 280.344 142.163C281.407 142.904 282.695 143.254 283.987 143.153C285.578 143.143 287.156 142.876 288.662 142.361V152.262C285.454 153.497 282.035 154.09 278.599 154.005Z" fill="url(#paint40_linear_803_2764)"/>
<path d="M296.422 153.213V126.517H290.957L292.223 115.664H311.314V153.21L296.422 153.213ZM295.23 110.674V99.9053H311.312V110.679L295.23 110.674Z" fill="url(#paint41_linear_803_2764)"/>
<path d="M338.802 154.004C331.302 154.004 325.771 152.341 322.207 149.014C318.643 145.688 316.861 140.829 316.859 134.438C316.859 128.101 318.655 123.256 322.247 119.902C325.839 116.549 331.357 114.872 338.802 114.872C346.301 114.872 351.859 116.549 355.476 119.902C359.093 123.256 360.902 128.101 360.904 134.438C360.904 140.829 359.109 145.688 355.517 149.014C351.925 152.34 346.354 154.004 338.802 154.004ZM338.802 143.152C341.232 143.152 342.988 142.465 344.07 141.092C345.152 139.719 345.693 137.501 345.694 134.439C345.694 131.431 345.153 129.226 344.07 127.825C342.988 126.424 341.232 125.724 338.803 125.725C336.426 125.725 334.71 126.425 333.654 127.825C332.599 129.225 332.071 131.43 332.072 134.439C332.072 137.504 332.599 139.721 333.654 141.092C334.71 142.463 336.425 143.149 338.802 143.152Z" fill="url(#paint42_linear_803_2764)"/>
<path d="M366.447 153.213V115.668H380.39L380.786 118.521C382.547 117.417 384.452 116.563 386.448 115.984C388.898 115.232 391.45 114.859 394.013 114.878C398.715 114.878 402.149 116.04 404.315 118.364C406.48 120.688 407.563 124.279 407.563 129.137V153.218H392.667V130.636C392.667 128.947 392.298 127.732 391.56 126.991C390.822 126.25 389.528 125.881 387.678 125.884C386.487 125.903 385.312 126.173 384.232 126.676C383.159 127.127 382.178 127.771 381.338 128.577V153.214L366.447 153.213Z" fill="url(#paint43_linear_803_2764)"/>
<path d="M0 170.323V115.665H12.9119L13.6245 118.676C15.1378 117.473 16.837 116.524 18.6553 115.867C20.7072 115.17 22.8646 114.835 25.0312 114.877C30.6293 114.877 34.9469 116.289 37.984 119.114C41.0212 121.939 42.5398 126.732 42.5398 133.493C42.5398 140.199 40.9287 145.295 37.7065 148.781C34.4843 152.267 30.0484 154.01 24.3987 154.009C21.0995 154.114 17.8277 153.378 14.8914 151.87V170.328L0 170.323ZM20.5964 143.152C21.5524 143.203 22.5064 143.021 23.3759 142.62C24.2453 142.219 25.0041 141.613 25.5863 140.853C26.7465 139.321 27.3268 136.944 27.3274 133.725C27.3274 130.609 26.7862 128.497 25.7038 127.387C24.6215 126.277 22.9718 125.723 20.7548 125.723C18.5914 125.703 16.4991 126.494 14.8905 127.941V141.249C15.6634 141.843 16.5175 142.324 17.4268 142.676C18.4469 143.021 19.52 143.182 20.5964 143.152Z" fill="url(#paint44_linear_803_2764)"/>
<path d="M48.083 153.213V115.668H62.4219L62.8177 118.679C64.6739 117.644 66.6404 116.819 68.6803 116.222C71.0213 115.491 73.4408 115.039 75.888 114.877V125.967C74.5139 126.073 73.0217 126.258 71.4115 126.521C69.8013 126.785 68.2435 127.115 66.7383 127.513C65.4473 127.833 64.1881 128.27 62.9761 128.818V153.218L48.083 153.213Z" fill="url(#paint45_linear_803_2764)"/>
<path d="M98.8604 154.004C91.361 154.004 85.8293 152.341 82.2655 149.014C78.7016 145.688 76.9191 140.829 76.918 134.438C76.918 128.101 78.7132 123.256 82.3038 119.902C85.8943 116.549 91.4132 114.872 98.8604 114.872C106.36 114.872 111.919 116.549 115.537 119.902C119.155 123.256 120.964 128.101 120.963 134.438C120.963 140.829 119.167 145.688 115.575 149.014C111.984 152.34 106.412 154.004 98.8604 154.004ZM98.8604 143.152C101.289 143.152 103.045 142.465 104.129 141.092C105.213 139.719 105.754 137.501 105.752 134.439C105.752 131.431 105.211 129.226 104.129 127.825C103.046 126.424 101.29 125.724 98.8604 125.725C96.484 125.725 94.7679 126.425 93.7122 127.825C92.6565 129.225 92.1281 131.43 92.1269 134.439C92.1269 137.504 92.6553 139.721 93.7122 141.092C94.769 142.463 96.4851 143.149 98.8604 143.152Z" fill="url(#paint46_linear_803_2764)"/>
<path d="M142.428 154.009C139.26 154.083 136.113 153.475 133.2 152.227C130.571 151.025 128.422 148.975 127.099 146.405C125.646 143.712 124.919 140.121 124.92 135.632C124.92 131.038 125.738 127.208 127.375 124.144C128.854 121.249 131.138 118.842 133.952 117.214C136.678 115.661 139.766 114.854 142.904 114.876C144.648 114.877 146.387 115.062 148.093 115.43C149.652 115.745 151.159 116.278 152.569 117.015V99.822H167.46V153.213H154.549L153.831 150.281C152.338 151.452 150.667 152.375 148.882 153.015C146.804 153.716 144.621 154.053 142.428 154.009ZM146.706 143.235C148.886 143.271 150.993 142.445 152.568 140.937V127.627C150.933 126.253 148.84 125.546 146.706 125.647C145.756 125.64 144.821 125.876 143.989 126.334C143.157 126.792 142.456 127.455 141.953 128.26C140.737 130.004 140.13 132.486 140.131 135.707C140.131 138.875 140.659 140.921 141.714 141.846C142.769 142.77 144.433 143.232 146.706 143.232V143.235Z" fill="url(#paint47_linear_803_2764)"/>
<path d="M188.215 154.005C183.831 154.005 180.397 152.764 177.913 150.281C175.43 147.799 174.188 144.155 174.189 139.35V115.664H189.086V138.163C189.086 141.437 190.75 143.073 194.078 143.073C195.309 143.07 196.526 142.8 197.643 142.282C198.699 141.829 199.644 141.154 200.413 140.301V115.664H215.308V153.21H201.366L200.969 150.357C199.306 151.504 197.476 152.386 195.543 152.972C193.168 153.693 190.696 154.042 188.215 154.005Z" fill="url(#paint48_linear_803_2764)"/>
<path d="M242.954 154.004C236.143 154.004 230.756 152.381 226.794 149.134C222.831 145.888 220.851 140.989 220.854 134.439C220.854 130.003 221.778 126.332 223.627 123.428C225.479 120.521 228.193 118.264 231.389 116.973C235.092 115.503 239.052 114.789 243.035 114.873C245.556 114.851 248.074 115.05 250.56 115.469C252.753 115.857 254.884 116.536 256.897 117.488V127.94C253.569 126.417 249.942 125.659 246.282 125.722C242.902 125.722 240.354 126.356 238.638 127.624C236.922 128.891 236.063 131.161 236.062 134.435C236.062 137.5 236.881 139.717 238.52 141.088C240.158 142.459 242.745 143.145 246.282 143.148C248.15 143.152 250.012 142.926 251.826 142.474C253.612 142.031 255.341 141.38 256.976 140.534V151.465C254.913 152.38 252.744 153.032 250.519 153.407C248.019 153.82 245.488 154.02 242.954 154.004Z" fill="url(#paint49_linear_803_2764)"/>
<path d="M278.599 154.005C273.582 154.005 269.938 152.737 267.668 150.202C265.397 147.667 264.261 144.234 264.262 139.906V126.675H259.35V115.664H264.262V107.982L279.153 104.416V115.664H287.787L287.233 126.675H279.153V138.796C279.153 140.381 279.55 141.503 280.344 142.163C281.407 142.904 282.695 143.254 283.987 143.153C285.578 143.143 287.156 142.876 288.662 142.361V152.262C285.454 153.497 282.035 154.09 278.599 154.005Z" fill="url(#paint50_linear_803_2764)"/>
<path d="M296.422 153.213V126.517H290.957L292.223 115.664H311.314V153.21L296.422 153.213ZM295.23 110.674V99.9053H311.312V110.679L295.23 110.674Z" fill="url(#paint51_linear_803_2764)"/>
<path d="M338.802 154.004C331.302 154.004 325.771 152.341 322.207 149.014C318.643 145.688 316.861 140.829 316.859 134.438C316.859 128.101 318.655 123.256 322.247 119.902C325.839 116.549 331.357 114.872 338.802 114.872C346.301 114.872 351.859 116.549 355.476 119.902C359.093 123.256 360.902 128.101 360.904 134.438C360.904 140.829 359.109 145.688 355.517 149.014C351.925 152.34 346.354 154.004 338.802 154.004ZM338.802 143.152C341.232 143.152 342.988 142.465 344.07 141.092C345.152 139.719 345.693 137.501 345.694 134.439C345.694 131.431 345.153 129.226 344.07 127.825C342.988 126.424 341.232 125.724 338.803 125.725C336.426 125.725 334.71 126.425 333.654 127.825C332.599 129.225 332.071 131.43 332.072 134.439C332.072 137.504 332.599 139.721 333.654 141.092C334.71 142.463 336.425 143.149 338.802 143.152Z" fill="url(#paint52_linear_803_2764)"/>
<path d="M366.447 153.213V115.668H380.39L380.786 118.521C382.547 117.417 384.452 116.563 386.448 115.984C388.898 115.232 391.45 114.859 394.013 114.878C398.715 114.878 402.149 116.04 404.315 118.364C406.48 120.688 407.563 124.279 407.563 129.137V153.218H392.667V130.636C392.667 128.947 392.298 127.732 391.56 126.991C390.822 126.25 389.528 125.881 387.678 125.884C386.487 125.903 385.312 126.173 384.232 126.676C383.159 127.127 382.178 127.771 381.338 128.577V153.214L366.447 153.213Z" fill="url(#paint53_linear_803_2764)"/>
<path d="M0 241.077L19.5663 190.062H35.3312L54.8975 241.077H39.3692L35.0936 230.225H19.7246L15.5257 241.077H0ZM21.7041 219.531H33.1125L27.4083 204.559L21.7041 219.531Z" fill="url(#paint54_linear_803_2764)"/>
<path d="M71.2951 241.871C66.9094 241.871 63.4755 240.63 60.9934 238.147C58.5114 235.665 57.2701 232.021 57.2695 227.215V203.53H72.1618V226.029C72.1618 229.302 73.8256 230.939 77.1534 230.939C78.3847 230.935 79.6005 230.665 80.7172 230.146C81.7742 229.695 82.7202 229.019 83.4893 228.166V203.53H98.3841V241.076H84.4445L84.0487 238.225C82.3861 239.371 80.5557 240.253 78.6228 240.838C76.2483 241.559 73.7764 241.908 71.2951 241.871Z" fill="url(#paint55_linear_803_2764)"/>
<path d="M121.437 241.871C118.269 241.944 115.121 241.334 112.209 240.083C109.58 238.882 107.431 236.832 106.108 234.262C104.657 231.569 103.931 227.978 103.931 223.488C103.931 218.894 104.749 215.066 106.386 212.002C107.863 209.106 110.147 206.699 112.961 205.07C115.688 203.518 118.775 202.712 121.913 202.735C123.657 202.736 125.396 202.921 127.102 203.289C128.661 203.603 130.168 204.137 131.578 204.874V187.686H146.47V241.078H133.558L132.844 238.147C131.352 239.318 129.681 240.241 127.895 240.881C125.816 241.582 123.631 241.917 121.437 241.871ZM125.715 231.098C127.895 231.133 130.002 230.307 131.577 228.799V215.493C129.942 214.118 127.849 213.411 125.715 213.513C124.765 213.506 123.83 213.743 122.998 214.2C122.166 214.658 121.465 215.321 120.962 216.126C119.746 217.869 119.139 220.351 119.14 223.572C119.14 226.741 119.668 228.788 120.723 229.712C121.778 230.636 123.442 231.098 125.716 231.098H125.715Z" fill="url(#paint56_linear_803_2764)"/>
<path d="M157.401 241.078V214.383H151.936L153.204 203.53H172.294V241.076L157.401 241.078ZM156.214 198.539V187.765H172.294V198.539H156.214Z" fill="url(#paint57_linear_803_2764)"/>
<path d="M195.503 241.871C190.487 241.871 186.843 240.603 184.572 238.068C182.301 235.532 181.166 232.099 181.166 227.766V214.542H176.254V203.531H181.166V195.846L196.059 192.283V203.532H204.693L204.139 214.543H196.059V226.664C196.059 228.248 196.454 229.37 197.245 230.03C198.31 230.771 199.597 231.12 200.89 231.02C202.481 231.01 204.06 230.742 205.565 230.227V240.129C202.358 241.363 198.939 241.955 195.503 241.871Z" fill="url(#paint58_linear_803_2764)"/>
<path d="M213.327 241.078V214.383H207.86L209.129 203.53H228.219V241.076L213.327 241.078ZM212.135 198.539V187.765H228.219V198.539H212.135Z" fill="url(#paint59_linear_803_2764)"/>
<path d="M255.705 241.871C248.205 241.871 242.674 240.208 239.11 236.881C235.546 233.554 233.763 228.696 233.761 222.305C233.761 215.968 235.557 211.122 239.148 207.767C242.74 204.413 248.259 202.737 255.705 202.739C263.202 202.739 268.76 204.415 272.379 207.767C275.998 211.12 277.807 215.965 277.807 222.305C277.807 228.694 276.012 233.553 272.42 236.881C268.828 240.209 263.257 241.873 255.705 241.871ZM255.705 231.019C258.133 231.019 259.889 230.332 260.973 228.959C262.057 227.586 262.598 225.368 262.597 222.306C262.597 219.294 262.056 217.089 260.973 215.69C259.891 214.292 258.135 213.592 255.706 213.592C253.329 213.592 251.613 214.291 250.558 215.69C249.502 217.089 248.974 219.295 248.973 222.306C248.973 225.37 249.501 227.588 250.558 228.959C251.614 230.33 253.33 231.016 255.705 231.019Z" fill="url(#paint60_linear_803_2764)"/>
<path d="M283.356 241.078V203.533H297.299L297.695 206.384C299.456 205.281 301.361 204.428 303.357 203.849C305.807 203.096 308.359 202.723 310.922 202.743C315.625 202.743 319.059 203.904 321.224 206.227C323.389 208.55 324.472 212.142 324.473 217.001V241.082H309.572V218.502C309.572 216.813 309.203 215.598 308.465 214.858C307.727 214.117 306.433 213.748 304.583 213.751C303.392 213.77 302.217 214.039 301.137 214.543C300.064 214.994 299.083 215.638 298.243 216.444V241.079L283.356 241.078Z" fill="url(#paint61_linear_803_2764)"/>
<path d="M0 241.077L19.5663 190.062H35.3312L54.8975 241.077H39.3692L35.0936 230.225H19.7246L15.5257 241.077H0ZM21.7041 219.531H33.1125L27.4083 204.559L21.7041 219.531Z" fill="url(#paint62_linear_803_2764)"/>
<path d="M71.2951 241.871C66.9094 241.871 63.4755 240.63 60.9934 238.147C58.5114 235.665 57.2701 232.021 57.2695 227.215V203.53H72.1618V226.029C72.1618 229.302 73.8256 230.939 77.1534 230.939C78.3847 230.935 79.6005 230.665 80.7172 230.146C81.7742 229.695 82.7202 229.019 83.4893 228.166V203.53H98.3841V241.076H84.4445L84.0487 238.225C82.3861 239.371 80.5557 240.253 78.6228 240.838C76.2483 241.559 73.7764 241.908 71.2951 241.871Z" fill="url(#paint63_linear_803_2764)"/>
<path d="M121.437 241.871C118.269 241.944 115.121 241.334 112.209 240.083C109.58 238.882 107.431 236.832 106.108 234.262C104.657 231.569 103.931 227.978 103.931 223.488C103.931 218.894 104.749 215.066 106.386 212.002C107.863 209.106 110.147 206.699 112.961 205.07C115.688 203.518 118.775 202.712 121.913 202.735C123.657 202.736 125.396 202.921 127.102 203.289C128.661 203.603 130.168 204.137 131.578 204.874V187.686H146.47V241.078H133.558L132.844 238.147C131.352 239.318 129.681 240.241 127.895 240.881C125.816 241.582 123.631 241.917 121.437 241.871ZM125.715 231.098C127.895 231.133 130.002 230.307 131.577 228.799V215.493C129.942 214.118 127.849 213.411 125.715 213.513C124.765 213.506 123.83 213.743 122.998 214.2C122.166 214.658 121.465 215.321 120.962 216.126C119.746 217.869 119.139 220.351 119.14 223.572C119.14 226.741 119.668 228.788 120.723 229.712C121.778 230.636 123.442 231.098 125.716 231.098H125.715Z" fill="url(#paint64_linear_803_2764)"/>
<path d="M157.401 241.078V214.383H151.936L153.204 203.53H172.294V241.076L157.401 241.078ZM156.214 198.539V187.765H172.294V198.539H156.214Z" fill="url(#paint65_linear_803_2764)"/>
<path d="M195.503 241.871C190.487 241.871 186.843 240.603 184.572 238.068C182.301 235.532 181.166 232.099 181.166 227.766V214.542H176.254V203.531H181.166V195.846L196.059 192.283V203.532H204.693L204.139 214.543H196.059V226.664C196.059 228.248 196.454 229.37 197.245 230.03C198.31 230.771 199.597 231.12 200.89 231.02C202.481 231.01 204.06 230.742 205.565 230.227V240.129C202.358 241.363 198.939 241.955 195.503 241.871Z" fill="url(#paint66_linear_803_2764)"/>
<path d="M213.327 241.078V214.383H207.86L209.129 203.53H228.219V241.076L213.327 241.078ZM212.135 198.539V187.765H228.219V198.539H212.135Z" fill="url(#paint67_linear_803_2764)"/>
<path d="M255.705 241.871C248.205 241.871 242.674 240.208 239.11 236.881C235.546 233.554 233.763 228.696 233.761 222.305C233.761 215.968 235.557 211.122 239.148 207.767C242.74 204.413 248.259 202.737 255.705 202.739C263.202 202.739 268.76 204.415 272.379 207.767C275.998 211.12 277.807 215.965 277.807 222.305C277.807 228.694 276.012 233.553 272.42 236.881C268.828 240.209 263.257 241.873 255.705 241.871ZM255.705 231.019C258.133 231.019 259.889 230.332 260.973 228.959C262.057 227.586 262.598 225.368 262.597 222.306C262.597 219.294 262.056 217.089 260.973 215.69C259.891 214.292 258.135 213.592 255.706 213.592C253.329 213.592 251.613 214.291 250.558 215.69C249.502 217.089 248.974 219.295 248.973 222.306C248.973 225.37 249.501 227.588 250.558 228.959C251.614 230.33 253.33 231.016 255.705 231.019Z" fill="url(#paint68_linear_803_2764)"/>
<path d="M283.356 241.078V203.533H297.299L297.695 206.384C299.456 205.281 301.361 204.428 303.357 203.849C305.807 203.096 308.359 202.723 310.922 202.743C315.625 202.743 319.059 203.904 321.224 206.227C323.389 208.55 324.472 212.142 324.473 217.001V241.082H309.572V218.502C309.572 216.813 309.203 215.598 308.465 214.858C307.727 214.117 306.433 213.748 304.583 213.751C303.392 213.77 302.217 214.039 301.137 214.543C300.064 214.994 299.083 215.638 298.243 216.444V241.079L283.356 241.078Z" fill="url(#paint69_linear_803_2764)"/>
<path d="M0 241.077L19.5663 190.062H35.3312L54.8975 241.077H39.3692L35.0936 230.225H19.7246L15.5257 241.077H0ZM21.7041 219.531H33.1125L27.4083 204.559L21.7041 219.531Z" fill="url(#paint70_linear_803_2764)"/>
<path d="M71.2951 241.871C66.9094 241.871 63.4755 240.63 60.9934 238.147C58.5114 235.665 57.2701 232.021 57.2695 227.215V203.53H72.1618V226.029C72.1618 229.302 73.8256 230.939 77.1534 230.939C78.3847 230.935 79.6005 230.665 80.7172 230.146C81.7742 229.695 82.7202 229.019 83.4893 228.166V203.53H98.3841V241.076H84.4445L84.0487 238.225C82.3861 239.371 80.5557 240.253 78.6228 240.838C76.2483 241.559 73.7764 241.908 71.2951 241.871Z" fill="url(#paint71_linear_803_2764)"/>
<path d="M121.437 241.871C118.269 241.944 115.121 241.334 112.209 240.083C109.58 238.882 107.431 236.832 106.108 234.262C104.657 231.569 103.931 227.978 103.931 223.488C103.931 218.894 104.749 215.066 106.386 212.002C107.863 209.106 110.147 206.699 112.961 205.07C115.688 203.518 118.775 202.712 121.913 202.735C123.657 202.736 125.396 202.921 127.102 203.289C128.661 203.603 130.168 204.137 131.578 204.874V187.686H146.47V241.078H133.558L132.844 238.147C131.352 239.318 129.681 240.241 127.895 240.881C125.816 241.582 123.631 241.917 121.437 241.871ZM125.715 231.098C127.895 231.133 130.002 230.307 131.577 228.799V215.493C129.942 214.118 127.849 213.411 125.715 213.513C124.765 213.506 123.83 213.743 122.998 214.2C122.166 214.658 121.465 215.321 120.962 216.126C119.746 217.869 119.139 220.351 119.14 223.572C119.14 226.741 119.668 228.788 120.723 229.712C121.778 230.636 123.442 231.098 125.716 231.098H125.715Z" fill="url(#paint72_linear_803_2764)"/>
<path d="M157.401 241.078V214.383H151.936L153.204 203.53H172.294V241.076L157.401 241.078ZM156.214 198.539V187.765H172.294V198.539H156.214Z" fill="url(#paint73_linear_803_2764)"/>
<path d="M195.503 241.871C190.487 241.871 186.843 240.603 184.572 238.068C182.301 235.532 181.166 232.099 181.166 227.766V214.542H176.254V203.531H181.166V195.846L196.059 192.283V203.532H204.693L204.139 214.543H196.059V226.664C196.059 228.248 196.454 229.37 197.245 230.03C198.31 230.771 199.597 231.12 200.89 231.02C202.481 231.01 204.06 230.742 205.565 230.227V240.129C202.358 241.363 198.939 241.955 195.503 241.871Z" fill="url(#paint74_linear_803_2764)"/>
<path d="M213.327 241.078V214.383H207.86L209.129 203.53H228.219V241.076L213.327 241.078ZM212.135 198.539V187.765H228.219V198.539H212.135Z" fill="url(#paint75_linear_803_2764)"/>
<path d="M255.705 241.871C248.205 241.871 242.674 240.208 239.11 236.881C235.546 233.554 233.763 228.696 233.761 222.305C233.761 215.968 235.557 211.122 239.148 207.767C242.74 204.413 248.259 202.737 255.705 202.739C263.202 202.739 268.76 204.415 272.379 207.767C275.998 211.12 277.807 215.965 277.807 222.305C277.807 228.694 276.012 233.553 272.42 236.881C268.828 240.209 263.257 241.873 255.705 241.871ZM255.705 231.019C258.133 231.019 259.889 230.332 260.973 228.959C262.057 227.586 262.598 225.368 262.597 222.306C262.597 219.294 262.056 217.089 260.973 215.69C259.891 214.292 258.135 213.592 255.706 213.592C253.329 213.592 251.613 214.291 250.558 215.69C249.502 217.089 248.974 219.295 248.973 222.306C248.973 225.37 249.501 227.588 250.558 228.959C251.614 230.33 253.33 231.016 255.705 231.019Z" fill="url(#paint76_linear_803_2764)"/>
<path d="M283.356 241.078V203.533H297.299L297.695 206.384C299.456 205.281 301.361 204.428 303.357 203.849C305.807 203.096 308.359 202.723 310.922 202.743C315.625 202.743 319.059 203.904 321.224 206.227C323.389 208.55 324.472 212.142 324.473 217.001V241.082H309.572V218.502C309.572 216.813 309.203 215.598 308.465 214.858C307.727 214.117 306.433 213.748 304.583 213.751C303.392 213.77 302.217 214.039 301.137 214.543C300.064 214.994 299.083 215.638 298.243 216.444V241.079L283.356 241.078Z" fill="url(#paint77_linear_803_2764)"/>
<defs>
<linearGradient id="paint0_linear_803_2764" x1="202.953" y1="20.4329" x2="202.953" y2="243.634" gradientUnits="userSpaceOnUse">
<stop stop-color="#00DCF0"/>
<stop offset="0.063" stop-color="#00D7F3"/>
<stop offset="0.275" stop-color="#00CBFC"/>
<stop offset="0.5" stop-color="#00C8FF"/>
<stop offset="1" stop-color="#00A0F2"/>
</linearGradient>
<linearGradient id="paint1_linear_803_2764" x1="202.984" y1="20.4204" x2="202.984" y2="243.628" gradientUnits="userSpaceOnUse">
<stop stop-color="#00DCF0"/>
<stop offset="0.063" stop-color="#00D7F3"/>
<stop offset="0.275" stop-color="#00CBFC"/>
<stop offset="0.5" stop-color="#00C8FF"/>
<stop offset="1" stop-color="#00A0F2"/>
</linearGradient>
<linearGradient id="paint2_linear_803_2764" x1="202.988" y1="20.4329" x2="202.988" y2="243.673" gradientUnits="userSpaceOnUse">
<stop stop-color="#00DCF0"/>
<stop offset="0.063" stop-color="#00D7F3"/>
<stop offset="0.275" stop-color="#00CBFC"/>
<stop offset="0.5" stop-color="#00C8FF"/>
<stop offset="1" stop-color="#00A0F2"/>
</linearGradient>
<linearGradient id="paint3_linear_803_2764" x1="203.003" y1="20.4204" x2="203.003" y2="243.628" gradientUnits="userSpaceOnUse">
<stop stop-color="#00DCF0"/>
<stop offset="0.063" stop-color="#00D7F3"/>
<stop offset="0.275" stop-color="#00CBFC"/>
<stop offset="0.5" stop-color="#00C8FF"/>
<stop offset="1" stop-color="#00A0F2"/>
</linearGradient>
<linearGradient id="paint4_linear_803_2764" x1="202.981" y1="20.4329" x2="202.981" y2="243.672" gradientUnits="userSpaceOnUse">
<stop stop-color="#00DCF0"/>
<stop offset="0.063" stop-color="#00D7F3"/>
<stop offset="0.275" stop-color="#00CBFC"/>
<stop offset="0.5" stop-color="#00C8FF"/>
<stop offset="1" stop-color="#00A0F2"/>
</linearGradient>
<linearGradient id="paint5_linear_803_2764" x1="202.996" y1="20.4589" x2="202.996" y2="243.631" gradientUnits="userSpaceOnUse">
<stop stop-color="#00DCF0"/>
<stop offset="0.063" stop-color="#00D7F3"/>
<stop offset="0.275" stop-color="#00CBFC"/>
<stop offset="0.5" stop-color="#00C8FF"/>
<stop offset="1" stop-color="#00A0F2"/>
</linearGradient>
<linearGradient id="paint6_linear_803_2764" x1="202.97" y1="20.4363" x2="202.97" y2="243.607" gradientUnits="userSpaceOnUse">
<stop stop-color="#00DCF0"/>
<stop offset="0.063" stop-color="#00D7F3"/>
<stop offset="0.275" stop-color="#00CBFC"/>
<stop offset="0.5" stop-color="#00C8FF"/>
<stop offset="1" stop-color="#00A0F2"/>
</linearGradient>
<linearGradient id="paint7_linear_803_2764" x1="202.979" y1="20.4169" x2="202.979" y2="243.661" gradientUnits="userSpaceOnUse">
<stop stop-color="#00DCF0"/>
<stop offset="0.063" stop-color="#00D7F3"/>
<stop offset="0.275" stop-color="#00CBFC"/>
<stop offset="0.5" stop-color="#00C8FF"/>
<stop offset="1" stop-color="#00A0F2"/>
</linearGradient>
<linearGradient id="paint8_linear_803_2764" x1="202.953" y1="20.4329" x2="202.953" y2="243.634" gradientUnits="userSpaceOnUse">
<stop stop-color="#00DCF0"/>
<stop offset="0.063" stop-color="#00D7F3"/>
<stop offset="0.275" stop-color="#00CBFC"/>
<stop offset="0.5" stop-color="#00C8FF"/>
<stop offset="1" stop-color="#00A0F2"/>
</linearGradient>
<linearGradient id="paint9_linear_803_2764" x1="202.984" y1="20.4204" x2="202.984" y2="243.628" gradientUnits="userSpaceOnUse">
<stop stop-color="#00DCF0"/>
<stop offset="0.063" stop-color="#00D7F3"/>
<stop offset="0.275" stop-color="#00CBFC"/>
<stop offset="0.5" stop-color="#00C8FF"/>
<stop offset="1" stop-color="#00A0F2"/>
</linearGradient>
<linearGradient id="paint10_linear_803_2764" x1="202.988" y1="20.4329" x2="202.988" y2="243.673" gradientUnits="userSpaceOnUse">
<stop stop-color="#00DCF0"/>
<stop offset="0.063" stop-color="#00D7F3"/>
<stop offset="0.275" stop-color="#00CBFC"/>
<stop offset="0.5" stop-color="#00C8FF"/>
<stop offset="1" stop-color="#00A0F2"/>
</linearGradient>
<linearGradient id="paint11_linear_803_2764" x1="203.003" y1="20.4204" x2="203.003" y2="243.628" gradientUnits="userSpaceOnUse">
<stop stop-color="#00DCF0"/>
<stop offset="0.063" stop-color="#00D7F3"/>
<stop offset="0.275" stop-color="#00CBFC"/>
<stop offset="0.5" stop-color="#00C8FF"/>
<stop offset="1" stop-color="#00A0F2"/>
</linearGradient>
<linearGradient id="paint12_linear_803_2764" x1="202.981" y1="20.4329" x2="202.981" y2="243.672" gradientUnits="userSpaceOnUse">
<stop stop-color="#00DCF0"/>
<stop offset="0.063" stop-color="#00D7F3"/>
<stop offset="0.275" stop-color="#00CBFC"/>
<stop offset="0.5" stop-color="#00C8FF"/>
<stop offset="1" stop-color="#00A0F2"/>
</linearGradient>
<linearGradient id="paint13_linear_803_2764" x1="202.996" y1="20.4589" x2="202.996" y2="243.631" gradientUnits="userSpaceOnUse">
<stop stop-color="#00DCF0"/>
<stop offset="0.063" stop-color="#00D7F3"/>
<stop offset="0.275" stop-color="#00CBFC"/>
<stop offset="0.5" stop-color="#00C8FF"/>
<stop offset="1" stop-color="#00A0F2"/>
</linearGradient>
<linearGradient id="paint14_linear_803_2764" x1="202.97" y1="20.4363" x2="202.97" y2="243.607" gradientUnits="userSpaceOnUse">
<stop stop-color="#00DCF0"/>
<stop offset="0.063" stop-color="#00D7F3"/>
<stop offset="0.275" stop-color="#00CBFC"/>
<stop offset="0.5" stop-color="#00C8FF"/>
<stop offset="1" stop-color="#00A0F2"/>
</linearGradient>
<linearGradient id="paint15_linear_803_2764" x1="202.979" y1="20.4169" x2="202.979" y2="243.661" gradientUnits="userSpaceOnUse">
<stop stop-color="#00DCF0"/>
<stop offset="0.063" stop-color="#00D7F3"/>
<stop offset="0.275" stop-color="#00CBFC"/>
<stop offset="0.5" stop-color="#00C8FF"/>
<stop offset="1" stop-color="#00A0F2"/>
</linearGradient>
<linearGradient id="paint16_linear_803_2764" x1="202.953" y1="20.4329" x2="202.953" y2="243.634" gradientUnits="userSpaceOnUse">
<stop stop-color="#00DCF0"/>
<stop offset="0.063" stop-color="#00D7F3"/>
<stop offset="0.275" stop-color="#00CBFC"/>
<stop offset="0.5" stop-color="#00C8FF"/>
<stop offset="1" stop-color="#00A0F2"/>
</linearGradient>
<linearGradient id="paint17_linear_803_2764" x1="202.984" y1="20.4204" x2="202.984" y2="243.628" gradientUnits="userSpaceOnUse">
<stop stop-color="#00DCF0"/>
<stop offset="0.063" stop-color="#00D7F3"/>
<stop offset="0.275" stop-color="#00CBFC"/>
<stop offset="0.5" stop-color="#00C8FF"/>
<stop offset="1" stop-color="#00A0F2"/>
</linearGradient>
<linearGradient id="paint18_linear_803_2764" x1="202.988" y1="20.4329" x2="202.988" y2="243.673" gradientUnits="userSpaceOnUse">
<stop stop-color="#00DCF0"/>
<stop offset="0.063" stop-color="#00D7F3"/>
<stop offset="0.275" stop-color="#00CBFC"/>
<stop offset="0.5" stop-color="#00C8FF"/>
<stop offset="1" stop-color="#00A0F2"/>
</linearGradient>
<linearGradient id="paint19_linear_803_2764" x1="203.003" y1="20.4204" x2="203.003" y2="243.628" gradientUnits="userSpaceOnUse">
<stop stop-color="#00DCF0"/>
<stop offset="0.063" stop-color="#00D7F3"/>
<stop offset="0.275" stop-color="#00CBFC"/>
<stop offset="0.5" stop-color="#00C8FF"/>
<stop offset="1" stop-color="#00A0F2"/>
</linearGradient>
<linearGradient id="paint20_linear_803_2764" x1="202.981" y1="20.4329" x2="202.981" y2="243.672" gradientUnits="userSpaceOnUse">
<stop stop-color="#00DCF0"/>
<stop offset="0.063" stop-color="#00D7F3"/>
<stop offset="0.275" stop-color="#00CBFC"/>
<stop offset="0.5" stop-color="#00C8FF"/>
<stop offset="1" stop-color="#00A0F2"/>
</linearGradient>
<linearGradient id="paint21_linear_803_2764" x1="202.996" y1="20.4589" x2="202.996" y2="243.631" gradientUnits="userSpaceOnUse">
<stop stop-color="#00DCF0"/>
<stop offset="0.063" stop-color="#00D7F3"/>
<stop offset="0.275" stop-color="#00CBFC"/>
<stop offset="0.5" stop-color="#00C8FF"/>
<stop offset="1" stop-color="#00A0F2"/>
</linearGradient>
<linearGradient id="paint22_linear_803_2764" x1="202.97" y1="20.4363" x2="202.97" y2="243.607" gradientUnits="userSpaceOnUse">
<stop stop-color="#00DCF0"/>
<stop offset="0.063" stop-color="#00D7F3"/>
<stop offset="0.275" stop-color="#00CBFC"/>
<stop offset="0.5" stop-color="#00C8FF"/>
<stop offset="1" stop-color="#00A0F2"/>
</linearGradient>
<linearGradient id="paint23_linear_803_2764" x1="202.979" y1="20.4169" x2="202.979" y2="243.661" gradientUnits="userSpaceOnUse">
<stop stop-color="#00DCF0"/>
<stop offset="0.063" stop-color="#00D7F3"/>
<stop offset="0.275" stop-color="#00CBFC"/>
<stop offset="0.5" stop-color="#00C8FF"/>
<stop offset="1" stop-color="#00A0F2"/>
</linearGradient>
<linearGradient id="paint24_linear_803_2764" x1="203" y1="15.3327" x2="203" y2="238.481" gradientUnits="userSpaceOnUse">
<stop stop-color="#00DCF0"/>
<stop offset="0.063" stop-color="#00D7F3"/>
<stop offset="0.275" stop-color="#00CBFC"/>
<stop offset="0.5" stop-color="#00C8FF"/>
<stop offset="1" stop-color="#00A0F2"/>
</linearGradient>
<linearGradient id="paint25_linear_803_2764" x1="202.985" y1="15.3443" x2="202.985" y2="238.488" gradientUnits="userSpaceOnUse">
<stop stop-color="#00DCF0"/>
<stop offset="0.063" stop-color="#00D7F3"/>
<stop offset="0.275" stop-color="#00CBFC"/>
<stop offset="0.5" stop-color="#00C8FF"/>
<stop offset="1" stop-color="#00A0F2"/>
</linearGradient>
<linearGradient id="paint26_linear_803_2764" x1="202.975" y1="15.3184" x2="202.975" y2="238.491" gradientUnits="userSpaceOnUse">
<stop stop-color="#00DCF0"/>
<stop offset="0.063" stop-color="#00D7F3"/>
<stop offset="0.275" stop-color="#00CBFC"/>
<stop offset="0.5" stop-color="#00C8FF"/>
<stop offset="1" stop-color="#00A0F2"/>
</linearGradient>
<linearGradient id="paint27_linear_803_2764" x1="202.98" y1="15.3357" x2="202.98" y2="238.501" gradientUnits="userSpaceOnUse">
<stop stop-color="#00DCF0"/>
<stop offset="0.063" stop-color="#00D7F3"/>
<stop offset="0.275" stop-color="#00CBFC"/>
<stop offset="0.5" stop-color="#00C8FF"/>
<stop offset="1" stop-color="#00A0F2"/>
</linearGradient>
<linearGradient id="paint28_linear_803_2764" x1="202.973" y1="15.3196" x2="202.973" y2="238.517" gradientUnits="userSpaceOnUse">
<stop stop-color="#00DCF0"/>
<stop offset="0.063" stop-color="#00D7F3"/>
<stop offset="0.275" stop-color="#00CBFC"/>
<stop offset="0.5" stop-color="#00C8FF"/>
<stop offset="1" stop-color="#00A0F2"/>
</linearGradient>
<linearGradient id="paint29_linear_803_2764" x1="202.973" y1="15.296" x2="202.973" y2="238.507" gradientUnits="userSpaceOnUse">
<stop stop-color="#00DCF0"/>
<stop offset="0.063" stop-color="#00D7F3"/>
<stop offset="0.275" stop-color="#00CBFC"/>
<stop offset="0.5" stop-color="#00C8FF"/>
<stop offset="1" stop-color="#00A0F2"/>
</linearGradient>
<linearGradient id="paint30_linear_803_2764" x1="202.983" y1="15.2901" x2="202.983" y2="238.527" gradientUnits="userSpaceOnUse">
<stop stop-color="#00DCF0"/>
<stop offset="0.063" stop-color="#00D7F3"/>
<stop offset="0.275" stop-color="#00CBFC"/>
<stop offset="0.5" stop-color="#00C8FF"/>
<stop offset="1" stop-color="#00A0F2"/>
</linearGradient>
<linearGradient id="paint31_linear_803_2764" x1="202.994" y1="15.3589" x2="202.994" y2="238.506" gradientUnits="userSpaceOnUse">
<stop stop-color="#00DCF0"/>
<stop offset="0.063" stop-color="#00D7F3"/>
<stop offset="0.275" stop-color="#00CBFC"/>
<stop offset="0.5" stop-color="#00C8FF"/>
<stop offset="1" stop-color="#00A0F2"/>
</linearGradient>
<linearGradient id="paint32_linear_803_2764" x1="203.003" y1="15.3184" x2="203.003" y2="238.491" gradientUnits="userSpaceOnUse">
<stop stop-color="#00DCF0"/>
<stop offset="0.063" stop-color="#00D7F3"/>
<stop offset="0.275" stop-color="#00CBFC"/>
<stop offset="0.5" stop-color="#00C8FF"/>
<stop offset="1" stop-color="#00A0F2"/>
</linearGradient>
<linearGradient id="paint33_linear_803_2764" x1="202.969" y1="15.3426" x2="202.969" y2="238.49" gradientUnits="userSpaceOnUse">
<stop stop-color="#00DCF0"/>
<stop offset="0.063" stop-color="#00D7F3"/>
<stop offset="0.275" stop-color="#00CBFC"/>
<stop offset="0.5" stop-color="#00C8FF"/>
<stop offset="1" stop-color="#00A0F2"/>
</linearGradient>
<linearGradient id="paint34_linear_803_2764" x1="203" y1="15.3327" x2="203" y2="238.481" gradientUnits="userSpaceOnUse">
<stop stop-color="#00DCF0"/>
<stop offset="0.063" stop-color="#00D7F3"/>
<stop offset="0.275" stop-color="#00CBFC"/>
<stop offset="0.5" stop-color="#00C8FF"/>
<stop offset="1" stop-color="#00A0F2"/>
</linearGradient>
<linearGradient id="paint35_linear_803_2764" x1="202.985" y1="15.3443" x2="202.985" y2="238.488" gradientUnits="userSpaceOnUse">
<stop stop-color="#00DCF0"/>
<stop offset="0.063" stop-color="#00D7F3"/>
<stop offset="0.275" stop-color="#00CBFC"/>
<stop offset="0.5" stop-color="#00C8FF"/>
<stop offset="1" stop-color="#00A0F2"/>
</linearGradient>
<linearGradient id="paint36_linear_803_2764" x1="202.975" y1="15.3184" x2="202.975" y2="238.491" gradientUnits="userSpaceOnUse">
<stop stop-color="#00DCF0"/>
<stop offset="0.063" stop-color="#00D7F3"/>
<stop offset="0.275" stop-color="#00CBFC"/>
<stop offset="0.5" stop-color="#00C8FF"/>
<stop offset="1" stop-color="#00A0F2"/>
</linearGradient>
<linearGradient id="paint37_linear_803_2764" x1="202.98" y1="15.3357" x2="202.98" y2="238.501" gradientUnits="userSpaceOnUse">
<stop stop-color="#00DCF0"/>
<stop offset="0.063" stop-color="#00D7F3"/>
<stop offset="0.275" stop-color="#00CBFC"/>
<stop offset="0.5" stop-color="#00C8FF"/>
<stop offset="1" stop-color="#00A0F2"/>
</linearGradient>
<linearGradient id="paint38_linear_803_2764" x1="202.973" y1="15.3196" x2="202.973" y2="238.517" gradientUnits="userSpaceOnUse">
<stop stop-color="#00DCF0"/>
<stop offset="0.063" stop-color="#00D7F3"/>
<stop offset="0.275" stop-color="#00CBFC"/>
<stop offset="0.5" stop-color="#00C8FF"/>
<stop offset="1" stop-color="#00A0F2"/>
</linearGradient>
<linearGradient id="paint39_linear_803_2764" x1="202.973" y1="15.296" x2="202.973" y2="238.507" gradientUnits="userSpaceOnUse">
<stop stop-color="#00DCF0"/>
<stop offset="0.063" stop-color="#00D7F3"/>
<stop offset="0.275" stop-color="#00CBFC"/>
<stop offset="0.5" stop-color="#00C8FF"/>
<stop offset="1" stop-color="#00A0F2"/>
</linearGradient>
<linearGradient id="paint40_linear_803_2764" x1="202.983" y1="15.2901" x2="202.983" y2="238.527" gradientUnits="userSpaceOnUse">
<stop stop-color="#00DCF0"/>
<stop offset="0.063" stop-color="#00D7F3"/>
<stop offset="0.275" stop-color="#00CBFC"/>
<stop offset="0.5" stop-color="#00C8FF"/>
<stop offset="1" stop-color="#00A0F2"/>
</linearGradient>
<linearGradient id="paint41_linear_803_2764" x1="202.994" y1="15.3589" x2="202.994" y2="238.506" gradientUnits="userSpaceOnUse">
<stop stop-color="#00DCF0"/>
<stop offset="0.063" stop-color="#00D7F3"/>
<stop offset="0.275" stop-color="#00CBFC"/>
<stop offset="0.5" stop-color="#00C8FF"/>
<stop offset="1" stop-color="#00A0F2"/>
</linearGradient>
<linearGradient id="paint42_linear_803_2764" x1="203.003" y1="15.3184" x2="203.003" y2="238.491" gradientUnits="userSpaceOnUse">
<stop stop-color="#00DCF0"/>
<stop offset="0.063" stop-color="#00D7F3"/>
<stop offset="0.275" stop-color="#00CBFC"/>
<stop offset="0.5" stop-color="#00C8FF"/>
<stop offset="1" stop-color="#00A0F2"/>
</linearGradient>
<linearGradient id="paint43_linear_803_2764" x1="202.969" y1="15.3426" x2="202.969" y2="238.49" gradientUnits="userSpaceOnUse">
<stop stop-color="#00DCF0"/>
<stop offset="0.063" stop-color="#00D7F3"/>
<stop offset="0.275" stop-color="#00CBFC"/>
<stop offset="0.5" stop-color="#00C8FF"/>
<stop offset="1" stop-color="#00A0F2"/>
</linearGradient>
<linearGradient id="paint44_linear_803_2764" x1="203" y1="15.3327" x2="203" y2="238.481" gradientUnits="userSpaceOnUse">
<stop stop-color="#00DCF0"/>
<stop offset="0.063" stop-color="#00D7F3"/>
<stop offset="0.275" stop-color="#00CBFC"/>
<stop offset="0.5" stop-color="#00C8FF"/>
<stop offset="1" stop-color="#00A0F2"/>
</linearGradient>
<linearGradient id="paint45_linear_803_2764" x1="202.985" y1="15.3443" x2="202.985" y2="238.488" gradientUnits="userSpaceOnUse">
<stop stop-color="#00DCF0"/>
<stop offset="0.063" stop-color="#00D7F3"/>
<stop offset="0.275" stop-color="#00CBFC"/>
<stop offset="0.5" stop-color="#00C8FF"/>
<stop offset="1" stop-color="#00A0F2"/>
</linearGradient>
<linearGradient id="paint46_linear_803_2764" x1="202.975" y1="15.3184" x2="202.975" y2="238.491" gradientUnits="userSpaceOnUse">
<stop stop-color="#00DCF0"/>
<stop offset="0.063" stop-color="#00D7F3"/>
<stop offset="0.275" stop-color="#00CBFC"/>
<stop offset="0.5" stop-color="#00C8FF"/>
<stop offset="1" stop-color="#00A0F2"/>
</linearGradient>
<linearGradient id="paint47_linear_803_2764" x1="202.98" y1="15.3357" x2="202.98" y2="238.501" gradientUnits="userSpaceOnUse">
<stop stop-color="#00DCF0"/>
<stop offset="0.063" stop-color="#00D7F3"/>
<stop offset="0.275" stop-color="#00CBFC"/>
<stop offset="0.5" stop-color="#00C8FF"/>
<stop offset="1" stop-color="#00A0F2"/>
</linearGradient>
<linearGradient id="paint48_linear_803_2764" x1="202.973" y1="15.3196" x2="202.973" y2="238.517" gradientUnits="userSpaceOnUse">
<stop stop-color="#00DCF0"/>
<stop offset="0.063" stop-color="#00D7F3"/>
<stop offset="0.275" stop-color="#00CBFC"/>
<stop offset="0.5" stop-color="#00C8FF"/>
<stop offset="1" stop-color="#00A0F2"/>
</linearGradient>
<linearGradient id="paint49_linear_803_2764" x1="202.973" y1="15.296" x2="202.973" y2="238.507" gradientUnits="userSpaceOnUse">
<stop stop-color="#00DCF0"/>
<stop offset="0.063" stop-color="#00D7F3"/>
<stop offset="0.275" stop-color="#00CBFC"/>
<stop offset="0.5" stop-color="#00C8FF"/>
<stop offset="1" stop-color="#00A0F2"/>
</linearGradient>
<linearGradient id="paint50_linear_803_2764" x1="202.983" y1="15.2901" x2="202.983" y2="238.527" gradientUnits="userSpaceOnUse">
<stop stop-color="#00DCF0"/>
<stop offset="0.063" stop-color="#00D7F3"/>
<stop offset="0.275" stop-color="#00CBFC"/>
<stop offset="0.5" stop-color="#00C8FF"/>
<stop offset="1" stop-color="#00A0F2"/>
</linearGradient>
<linearGradient id="paint51_linear_803_2764" x1="202.994" y1="15.3589" x2="202.994" y2="238.506" gradientUnits="userSpaceOnUse">
<stop stop-color="#00DCF0"/>
<stop offset="0.063" stop-color="#00D7F3"/>
<stop offset="0.275" stop-color="#00CBFC"/>
<stop offset="0.5" stop-color="#00C8FF"/>
<stop offset="1" stop-color="#00A0F2"/>
</linearGradient>
<linearGradient id="paint52_linear_803_2764" x1="203.003" y1="15.3184" x2="203.003" y2="238.491" gradientUnits="userSpaceOnUse">
<stop stop-color="#00DCF0"/>
<stop offset="0.063" stop-color="#00D7F3"/>
<stop offset="0.275" stop-color="#00CBFC"/>
<stop offset="0.5" stop-color="#00C8FF"/>
<stop offset="1" stop-color="#00A0F2"/>
</linearGradient>
<linearGradient id="paint53_linear_803_2764" x1="202.969" y1="15.3426" x2="202.969" y2="238.49" gradientUnits="userSpaceOnUse">
<stop stop-color="#00DCF0"/>
<stop offset="0.063" stop-color="#00D7F3"/>
<stop offset="0.275" stop-color="#00CBFC"/>
<stop offset="0.5" stop-color="#00C8FF"/>
<stop offset="1" stop-color="#00A0F2"/>
</linearGradient>
<linearGradient id="paint54_linear_803_2764" x1="204.548" y1="18.7023" x2="204.548" y2="241.894" gradientUnits="userSpaceOnUse">
<stop stop-color="#00DCF0"/>
<stop offset="0.063" stop-color="#00D7F3"/>
<stop offset="0.275" stop-color="#00CBFC"/>
<stop offset="0.5" stop-color="#00C8FF"/>
<stop offset="1" stop-color="#00A0F2"/>
</linearGradient>
<linearGradient id="paint55_linear_803_2764" x1="204.583" y1="18.6768" x2="204.583" y2="241.874" gradientUnits="userSpaceOnUse">
<stop stop-color="#00DCF0"/>
<stop offset="0.063" stop-color="#00D7F3"/>
<stop offset="0.275" stop-color="#00CBFC"/>
<stop offset="0.5" stop-color="#00C8FF"/>
<stop offset="1" stop-color="#00A0F2"/>
</linearGradient>
<linearGradient id="paint56_linear_803_2764" x1="204.58" y1="18.6657" x2="204.58" y2="241.877" gradientUnits="userSpaceOnUse">
<stop stop-color="#00DCF0"/>
<stop offset="0.063" stop-color="#00D7F3"/>
<stop offset="0.275" stop-color="#00CBFC"/>
<stop offset="0.5" stop-color="#00C8FF"/>
<stop offset="1" stop-color="#00A0F2"/>
</linearGradient>
<linearGradient id="paint57_linear_803_2764" x1="204.581" y1="18.7124" x2="204.581" y2="241.877" gradientUnits="userSpaceOnUse">
<stop stop-color="#00DCF0"/>
<stop offset="0.063" stop-color="#00D7F3"/>
<stop offset="0.275" stop-color="#00CBFC"/>
<stop offset="0.5" stop-color="#00C8FF"/>
<stop offset="1" stop-color="#00A0F2"/>
</linearGradient>
<linearGradient id="paint58_linear_803_2764" x1="204.568" y1="18.6503" x2="204.568" y2="241.879" gradientUnits="userSpaceOnUse">
<stop stop-color="#00DCF0"/>
<stop offset="0.063" stop-color="#00D7F3"/>
<stop offset="0.275" stop-color="#00CBFC"/>
<stop offset="0.5" stop-color="#00C8FF"/>
<stop offset="1" stop-color="#00A0F2"/>
</linearGradient>
<linearGradient id="paint59_linear_803_2764" x1="204.583" y1="18.7124" x2="204.583" y2="241.877" gradientUnits="userSpaceOnUse">
<stop stop-color="#00DCF0"/>
<stop offset="0.063" stop-color="#00D7F3"/>
<stop offset="0.275" stop-color="#00CBFC"/>
<stop offset="0.5" stop-color="#00C8FF"/>
<stop offset="1" stop-color="#00A0F2"/>
</linearGradient>
<linearGradient id="paint60_linear_803_2764" x1="204.558" y1="18.7029" x2="204.558" y2="241.871" gradientUnits="userSpaceOnUse">
<stop stop-color="#00DCF0"/>
<stop offset="0.063" stop-color="#00D7F3"/>
<stop offset="0.275" stop-color="#00CBFC"/>
<stop offset="0.5" stop-color="#00C8FF"/>
<stop offset="1" stop-color="#00A0F2"/>
</linearGradient>
<linearGradient id="paint61_linear_803_2764" x1="204.578" y1="18.7108" x2="204.578" y2="241.887" gradientUnits="userSpaceOnUse">
<stop stop-color="#00DCF0"/>
<stop offset="0.063" stop-color="#00D7F3"/>
<stop offset="0.275" stop-color="#00CBFC"/>
<stop offset="0.5" stop-color="#00C8FF"/>
<stop offset="1" stop-color="#00A0F2"/>
</linearGradient>
<linearGradient id="paint62_linear_803_2764" x1="204.548" y1="18.7023" x2="204.548" y2="241.894" gradientUnits="userSpaceOnUse">
<stop stop-color="#00DCF0"/>
<stop offset="0.063" stop-color="#00D7F3"/>
<stop offset="0.275" stop-color="#00CBFC"/>
<stop offset="0.5" stop-color="#00C8FF"/>
<stop offset="1" stop-color="#00A0F2"/>
</linearGradient>
<linearGradient id="paint63_linear_803_2764" x1="204.583" y1="18.6768" x2="204.583" y2="241.874" gradientUnits="userSpaceOnUse">
<stop stop-color="#00DCF0"/>
<stop offset="0.063" stop-color="#00D7F3"/>
<stop offset="0.275" stop-color="#00CBFC"/>
<stop offset="0.5" stop-color="#00C8FF"/>
<stop offset="1" stop-color="#00A0F2"/>
</linearGradient>
<linearGradient id="paint64_linear_803_2764" x1="204.58" y1="18.6657" x2="204.58" y2="241.877" gradientUnits="userSpaceOnUse">
<stop stop-color="#00DCF0"/>
<stop offset="0.063" stop-color="#00D7F3"/>
<stop offset="0.275" stop-color="#00CBFC"/>
<stop offset="0.5" stop-color="#00C8FF"/>
<stop offset="1" stop-color="#00A0F2"/>
</linearGradient>
<linearGradient id="paint65_linear_803_2764" x1="204.581" y1="18.7124" x2="204.581" y2="241.877" gradientUnits="userSpaceOnUse">
<stop stop-color="#00DCF0"/>
<stop offset="0.063" stop-color="#00D7F3"/>
<stop offset="0.275" stop-color="#00CBFC"/>
<stop offset="0.5" stop-color="#00C8FF"/>
<stop offset="1" stop-color="#00A0F2"/>
</linearGradient>
<linearGradient id="paint66_linear_803_2764" x1="204.568" y1="18.6503" x2="204.568" y2="241.879" gradientUnits="userSpaceOnUse">
<stop stop-color="#00DCF0"/>
<stop offset="0.063" stop-color="#00D7F3"/>
<stop offset="0.275" stop-color="#00CBFC"/>
<stop offset="0.5" stop-color="#00C8FF"/>
<stop offset="1" stop-color="#00A0F2"/>
</linearGradient>
<linearGradient id="paint67_linear_803_2764" x1="204.583" y1="18.7124" x2="204.583" y2="241.877" gradientUnits="userSpaceOnUse">
<stop stop-color="#00DCF0"/>
<stop offset="0.063" stop-color="#00D7F3"/>
<stop offset="0.275" stop-color="#00CBFC"/>
<stop offset="0.5" stop-color="#00C8FF"/>
<stop offset="1" stop-color="#00A0F2"/>
</linearGradient>
<linearGradient id="paint68_linear_803_2764" x1="204.558" y1="18.7029" x2="204.558" y2="241.871" gradientUnits="userSpaceOnUse">
<stop stop-color="#00DCF0"/>
<stop offset="0.063" stop-color="#00D7F3"/>
<stop offset="0.275" stop-color="#00CBFC"/>
<stop offset="0.5" stop-color="#00C8FF"/>
<stop offset="1" stop-color="#00A0F2"/>
</linearGradient>
<linearGradient id="paint69_linear_803_2764" x1="204.578" y1="18.7108" x2="204.578" y2="241.887" gradientUnits="userSpaceOnUse">
<stop stop-color="#00DCF0"/>
<stop offset="0.063" stop-color="#00D7F3"/>
<stop offset="0.275" stop-color="#00CBFC"/>
<stop offset="0.5" stop-color="#00C8FF"/>
<stop offset="1" stop-color="#00A0F2"/>
</linearGradient>
<linearGradient id="paint70_linear_803_2764" x1="204.548" y1="18.7023" x2="204.548" y2="241.894" gradientUnits="userSpaceOnUse">
<stop stop-color="#00DCF0"/>
<stop offset="0.063" stop-color="#00D7F3"/>
<stop offset="0.275" stop-color="#00CBFC"/>
<stop offset="0.5" stop-color="#00C8FF"/>
<stop offset="1" stop-color="#00A0F2"/>
</linearGradient>
<linearGradient id="paint71_linear_803_2764" x1="204.583" y1="18.6768" x2="204.583" y2="241.874" gradientUnits="userSpaceOnUse">
<stop stop-color="#00DCF0"/>
<stop offset="0.063" stop-color="#00D7F3"/>
<stop offset="0.275" stop-color="#00CBFC"/>
<stop offset="0.5" stop-color="#00C8FF"/>
<stop offset="1" stop-color="#00A0F2"/>
</linearGradient>
<linearGradient id="paint72_linear_803_2764" x1="204.58" y1="18.6657" x2="204.58" y2="241.877" gradientUnits="userSpaceOnUse">
<stop stop-color="#00DCF0"/>
<stop offset="0.063" stop-color="#00D7F3"/>
<stop offset="0.275" stop-color="#00CBFC"/>
<stop offset="0.5" stop-color="#00C8FF"/>
<stop offset="1" stop-color="#00A0F2"/>
</linearGradient>
<linearGradient id="paint73_linear_803_2764" x1="204.581" y1="18.7124" x2="204.581" y2="241.877" gradientUnits="userSpaceOnUse">
<stop stop-color="#00DCF0"/>
<stop offset="0.063" stop-color="#00D7F3"/>
<stop offset="0.275" stop-color="#00CBFC"/>
<stop offset="0.5" stop-color="#00C8FF"/>
<stop offset="1" stop-color="#00A0F2"/>
</linearGradient>
<linearGradient id="paint74_linear_803_2764" x1="204.568" y1="18.6503" x2="204.568" y2="241.879" gradientUnits="userSpaceOnUse">
<stop stop-color="#00DCF0"/>
<stop offset="0.063" stop-color="#00D7F3"/>
<stop offset="0.275" stop-color="#00CBFC"/>
<stop offset="0.5" stop-color="#00C8FF"/>
<stop offset="1" stop-color="#00A0F2"/>
</linearGradient>
<linearGradient id="paint75_linear_803_2764" x1="204.583" y1="18.7124" x2="204.583" y2="241.877" gradientUnits="userSpaceOnUse">
<stop stop-color="#00DCF0"/>
<stop offset="0.063" stop-color="#00D7F3"/>
<stop offset="0.275" stop-color="#00CBFC"/>
<stop offset="0.5" stop-color="#00C8FF"/>
<stop offset="1" stop-color="#00A0F2"/>
</linearGradient>
<linearGradient id="paint76_linear_803_2764" x1="204.558" y1="18.7029" x2="204.558" y2="241.871" gradientUnits="userSpaceOnUse">
<stop stop-color="#00DCF0"/>
<stop offset="0.063" stop-color="#00D7F3"/>
<stop offset="0.275" stop-color="#00CBFC"/>
<stop offset="0.5" stop-color="#00C8FF"/>
<stop offset="1" stop-color="#00A0F2"/>
</linearGradient>
<linearGradient id="paint77_linear_803_2764" x1="204.578" y1="18.7108" x2="204.578" y2="241.887" gradientUnits="userSpaceOnUse">
<stop stop-color="#00DCF0"/>
<stop offset="0.063" stop-color="#00D7F3"/>
<stop offset="0.275" stop-color="#00CBFC"/>
<stop offset="0.5" stop-color="#00C8FF"/>
<stop offset="1" stop-color="#00A0F2"/>
</linearGradient>
</defs>
</svg>
